<?xml version="1.0" encoding="UTF-8"?>
<svg xmlns="http://www.w3.org/2000/svg" version="1.1" viewBox="0 0 44 42">
  <defs>
    <style>
      .cls-1 {
        fill: #db0a28;
      }

      .cls-2 {
        fill: #ff262e;
      }
    </style>
  </defs>
  <!-- Generator: Adobe Illustrator 28.7.1, SVG Export Plug-In . SVG Version: 1.2.0 Build 142)  -->
  <g>
    <g id="Layer_1">
      <g>
        <path class="cls-1" d="M21.8,37.3c1,0,8.7-6.5,13.1-11.9,4.3-5.2,2.8-11.3,1.8-13-1.1-2-15.4,4.6-15.4,4.6,0,0-13.3-7.4-14.3-5.8-1.3,2.2-3.2,8,.6,13.3,4,5.7,13,12.7,14.1,12.7Z"/>
        <path class="cls-2" d="M21.7,35.6s14.1-10.4,15.3-16.8c1.1-6-1.2-9-4.1-10.4-7.3-3.6-11,3.4-11.4,3.4s-3.8-7-10.9-4c-3.9,1.7-5.5,6.2-4,11.4,2.3,7.5,15,16.3,15,16.3Z"/>
      </g>
    </g>
  </g>
</svg>