<?xml version="1.0" encoding="UTF-8"?>
<svg xmlns="http://www.w3.org/2000/svg" xmlns:xlink="http://www.w3.org/1999/xlink" version="1.1" viewBox="0 0 44 42">
  <defs>
    <style>
      .cls-1 {
        fill: #eb8f00;
      }

      .cls-2 {
        fill: url(#_É_πÌÚ_·ÂÁ_Ì_Á_Ë_2);
      }

      .cls-3 {
        fill: #896024;
      }

      .cls-4 {
        fill: #422b0d;
      }
    </style>
    <radialGradient id="_É_πÌÚ_·ÂÁ_Ì_Á_Ë_2" data-name="É‡‰¥πÌÚ ·ÂÁ Ì‡Á‚Ë 2" cx="24156.8" cy="-24872" fx="24156.8" fy="-24872" r="163.7" gradientTransform="translate(-2244.4 -2311.9) scale(0 0)" gradientUnits="userSpaceOnUse">
      <stop offset=".5" stop-color="#fde030"/>
      <stop offset=".9" stop-color="#f7c02b"/>
      <stop offset="1" stop-color="#f4a223"/>
    </radialGradient>
  </defs>
  <!-- Generator: Adobe Illustrator 28.7.1, SVG Export Plug-In . SVG Version: 1.2.0 Build 142)  -->
  <g>
    <g id="Layer_1">
      <g>
        <path class="cls-2" d="M21.5,36.2c-7.5,0-15.6-4.7-15.6-15.1S14,6,21.5,6s8,1.4,10.9,3.9c3.1,2.8,4.7,6.6,4.7,11.2s-1.6,8.4-4.7,11.2c-2.9,2.5-6.7,3.9-10.9,3.9Z"/>
        <path class="cls-4" d="M16.2,15.2c-1.1,0-2.2,1-2.2,2.5s1,2.5,2.2,2.5,2.2-1,2.2-2.5-1-2.5-2.2-2.5Z"/>
        <path class="cls-3" d="M16.2,16.2c-.4-.2-.8,0-1,.4-.1.3,0,.7.2.9.4.2.8,0,1-.4.1-.3,0-.7-.2-.9Z"/>
        <path class="cls-4" d="M26.6,15.2c-1.1,0-2.2,1-2.2,2.5s1,2.5,2.2,2.5,2.2-1,2.2-2.5-1-2.5-2.2-2.5Z"/>
        <path class="cls-3" d="M26.5,16.2c-.4-.2-.8,0-1,.4-.1.3,0,.7.2.9.4.2.8,0,1-.4.1-.3,0-.7-.2-.9Z"/>
        <path class="cls-4" d="M21.4,28.8c-2.4,0-4.8-1-6.4-2.8-.1-.1-.2-.3,0-.5,0-.2.3-.3.4-.3,0,0,.2,0,.2,0,1.3.7,3.5,1.7,5.8,1.7h0c2.3,0,4.5-.9,5.8-1.7,0,0,.2,0,.2,0,.2,0,.4.1.4.3,0,.2,0,.4,0,.5-1.6,1.8-4,2.8-6.4,2.8"/>
        <path class="cls-1" d="M34.4,12.1c1.4,2.3,2.2,5.1,2.2,8.2,0,4.6-1.6,8.4-4.7,11.2-2.9,2.5-6.7,3.9-10.9,3.9s-10-2-13-6.2c2.9,4.8,8.4,7,13.5,7s8-1.4,10.9-3.9c3.1-2.8,4.7-6.6,4.7-11.2s-.9-6.5-2.7-9Z"/>
      </g>
    </g>
  </g>
</svg>