<?xml version="1.0" encoding="UTF-8"?>
<svg xmlns="http://www.w3.org/2000/svg" xmlns:xlink="http://www.w3.org/1999/xlink" version="1.1" viewBox="0 0 155.3 129.8">
  <defs>
    <style>
      .cls-1 {
        fill: none;
      }

      .cls-2 {
        fill: #98c2fd;
      }

      .cls-3 {
        clip-path: url(#clippath);
      }
    </style>
    <clipPath id="clippath">
      <rect class="cls-1" x="58.6" y="49.9" width="37.9" height="38.6"/>
    </clipPath>
  </defs>
  <!-- Generator: Adobe Illustrator 28.7.1, SVG Export Plug-In . SVG Version: 1.2.0 Build 142)  -->
  <g>
    <g id="Layer_1">
      <g class="cls-3">
        <path class="cls-2" d="M82.7,88.3s0,0,0,0c0,0,0,0-.1,0,0,0,0,0,0,0,0,0,0,0,0,0-.3,0-.4-.3-.4-.6s0-.1,0-.2c.1-.3.4-.5.8-.4,0,0,0,0,0,0,0,0,0,0,0,0h0s0,0,0,0t0,0h0s0,0,0,0c0,0,0,0,0,0h0s0,0,0,0h0c0,0,.1,0,.2.1h0c.2.2.3.4.2.7,0,.3-.3.4-.6.4"/>
        <path class="cls-2" d="M71.8,88.4s0,0,0,0c-.1,0-.3,0-.4,0-.3,0-.5-.4-.4-.8,0-.3.4-.5.7-.4,0,0,.1,0,.2,0,.3,0,.6.3.5.7,0,.3-.3.6-.6.6"/>
        <path class="cls-2" d="M72.4,88.3c-.3,0-.5-.2-.6-.5,0,0,0-.1,0-.2,0-.3.2-.5.4-.6.3,0,.7,0,.8.4,0,0,0,.1,0,.2,0,.3-.2.5-.4.6,0,0,0,0,0,0,0,0-.1,0-.2,0"/>
        <path class="cls-2" d="M71.9,88.4s0,0-.1,0c-.3,0-.6-.3-.6-.7,0-.3.3-.6.6-.6h0c.3,0,.6.3.6.6s-.3.6-.6.6h0Z"/>
        <path class="cls-2" d="M72,88.4c-.3,0-.6-.3-.6-.6,0-.3.2-.6.6-.6,0,0,0,0,0,0h0s0,0,0,0c.3,0,.6.2.7.6,0,.3-.2.6-.5.7,0,0,0,0,0,0,0,0,0,0,0,0h0s0,0,0,0"/>
        <path class="cls-2" d="M83.1,88.4h0s0,0,0,0c0,0,0,0,0,0-.3,0-.6-.3-.6-.6s.3-.6.6-.6h0s0,0,0,0h0s0,0,0,0c0,0,0,0,0,0,.3,0,.6.3.6.6,0,.3-.2.6-.6.7v-.6s0,.6,0,.6c0,0,0,0-.1,0"/>
        <path class="cls-2" d="M83.3,88.4c-.3,0-.6-.2-.6-.6,0-.3.2-.6.5-.7,0,0,.1,0,.2,0,.3,0,.7,0,.7.4,0,.3,0,.7-.4.8-.1,0-.3,0-.4,0,0,0,0,0,0,0,0,0,0,0,0,0"/>
        <path class="cls-2" d="M83,88.4s0,0,0,0c0,0,0,0,0,0,0,0,0,0,0,0,0,0,0,0,0,0-.3,0-.5-.4-.5-.7,0-.3.3-.5.7-.5,0,0,0,0,0,0h0c.3,0,.6.3.6.7,0,.3-.3.6-.6.6"/>
        <path class="cls-2" d="M83.6,88.3c-.3,0-.5-.2-.6-.4,0-.3,0-.7.4-.8.4-.1.7-.6.7-1s.3-.6.6-.6.6.3.6.6h0s0,0,0,0c0,1-.6,1.9-1.6,2.2,0,0-.1,0-.2,0"/>
        <path class="cls-2" d="M71.5,88.3c0,0-.1,0-.2,0-.9-.3-1.6-1.2-1.6-2.2h0c0,0,0,0,0,0,0-.3.3-.6.6-.6h0c.3,0,.6.3.6.6,0,.5.3.9.7,1,.3.1.5.4.4.8,0,.3-.3.4-.6.4"/>
        <path class="cls-2" d="M72.1,88.4c-.3,0-.6-.2-.6-.6,0-.3.2-.6.5-.7,0,0,.1,0,.2,0,.3,0,.7,0,.7.4,0,.3,0,.7-.4.8-.1,0-.3,0-.4,0,0,0,0,0,0,0"/>
        <path class="cls-2" d="M72.4,88.3c-.3,0-.5-.2-.6-.4,0-.3,0-.7.4-.8.4-.1.7-.6.7-1s.3-.6.6-.6.6.3.6.6h0c0,1.1-.6,1.9-1.6,2.2,0,0-.1,0-.2,0"/>
        <path class="cls-2" d="M71.9,88.4s0,0,0,0h0s0,0,0,0c0,0,0,0,0,0-.3,0-.5-.3-.5-.7,0-.3.3-.6.7-.6,0,0,0,0,0,0h0s0,0,0,0c.3,0,.6.3.6.6,0,.3-.3.6-.6.6"/>
        <path class="cls-2" d="M72,87.8v.6s0-.6,0-.6h0ZM71.9,88.4c-.3,0-.6-.3-.6-.6s.3-.6.6-.6,0,0,0,0c.3,0,.6.2.6.6,0,.3-.2.6-.6.7,0,0,0,0-.1,0"/>
        <path class="cls-2" d="M71.5,88.3c0,0-.1,0-.2,0,0,0,0,0,0,0-.2,0-.4-.3-.4-.6s0-.1,0-.2c.1-.3.4-.5.8-.4.3,0,.4.3.4.6s0,.1,0,.2c0,.3-.3.4-.6.4"/>
        <path class="cls-2" d="M83.5,88.3c-.3,0-.5-.2-.6-.5,0,0,0-.1,0-.2,0-.3.2-.5.4-.6.3,0,.6,0,.7.4,0,0,0,.1,0,.2,0,.3-.2.5-.4.6,0,0,0,0,0,0,0,0-.1,0-.2,0"/>
        <path class="cls-2" d="M83.2,88.4s0,0,0,0c-.3,0-.5-.3-.5-.6,0-.3.2-.6.5-.6,0,0,0,0,0,0s0,0,0,0c0,0,0,0,0,0,.3,0,.6.2.7.6,0,.3-.2.6-.5.7,0,0,0,0,0,0,0,0,0,0,0,0,0,0,0,0,0,0,0,0,0,0,0,0"/>
        <path class="cls-2" d="M83.1,88.4s0,0-.1,0c-.3,0-.6-.3-.6-.7,0-.3.3-.6.6-.6,0,0,0,0,0,0,.3,0,.6.3.6.6,0,.3-.3.6-.6.6h0Z"/>
        <path class="cls-2" d="M82.9,88.4s0,0,0,0c0,0,0,0,0,0-.1,0-.3,0-.4,0-.3,0-.5-.4-.4-.8,0-.3.4-.5.7-.4,0,0,.1,0,.2,0h0c.3,0,.6.3.5.7,0,.3-.3.6-.6.6"/>
        <path class="cls-2" d="M82.6,88.3c0,0-.1,0-.2,0-.9-.3-1.6-1.2-1.6-2.2h0c0-.4.3-.7.6-.7h0c.3,0,.6.3.6.6,0,.5.3.9.7,1,.3.1.5.4.4.8,0,.3-.3.4-.6.4"/>
        <path class="cls-2" d="M63,86.1c0,.6.5,1.2,1.1,1.2h4.5c.6,0,1.1-.5,1.1-1.1,0,0,0,0,0,0v-2.1s0,0,0,0v-2.6c0-1,.4-1.9,1-2.6-.1,0-.3,0-.4,0h-8c-1.4,0-2.6,1.2-2.6,2.6v4.8c0,.3.1.6.3.7s.5.3.8.3c.5,0,.9-.5.9-1.1v-2.1c0-.3.3-.6.6-.6s.6.3.6.6v2.1ZM68.6,88.4h-4.5c-.7,0-1.3-.3-1.7-.8-.4.4-.8.7-1.4.7-.6,0-1.2-.2-1.7-.6-.5-.4-.7-1-.7-1.7v-4.8c0-2.1,1.7-3.9,3.8-3.9h8c.7,0,1.3.2,1.9.5.2.1.3.3.3.5s-.1.4-.3.5c-.8.5-1.3,1.3-1.3,2.3v4.7c0,1.3-1.1,2.4-2.3,2.4"/>
        <path class="cls-2" d="M66.4,71c-1.1,0-2.1,1-2.1,2.1s.9,2.1,2.1,2.1,2.1-1,2.1-2.1-.9-2.1-2.1-2.1M66.4,76.5c-1.8,0-3.3-1.5-3.3-3.4s1.5-3.4,3.3-3.4,3.3,1.5,3.3,3.4-1.5,3.4-3.3,3.4"/>
        <path class="cls-2" d="M84.3,78.7c.6.7,1,1.6,1,2.6v4.7c0,.6.5,1.1,1.1,1.1h4.5c.6,0,1.1-.5,1.1-1.1,0,0,0,0,0,0v-2.1c0-.3.3-.6.6-.6s.6.3.6.6v2s0,0,0,0c0,.6.4,1,.9,1.1.3,0,.6,0,.8-.3s.3-.5.3-.7v-4.8c0-1.5-1.2-2.6-2.6-2.6h-8c-.1,0-.3,0-.4,0M91,88.4h-4.5c-1.3,0-2.3-1.1-2.3-2.4v-4.7c0-.9-.5-1.8-1.3-2.3-.2-.1-.3-.3-.3-.5s.1-.4.3-.5c.6-.3,1.2-.5,1.9-.5h8c2.1,0,3.8,1.7,3.8,3.9v4.8c0,.6-.3,1.2-.7,1.7-.5.4-1.1.6-1.7.6-.5,0-1-.3-1.4-.7-.4.5-1,.8-1.7.8"/>
        <path class="cls-2" d="M88.7,71c-1.1,0-2.1,1-2.1,2.1s.9,2.1,2.1,2.1,2.1-1,2.1-2.1-.9-2.1-2.1-2.1M88.7,76.5c-1.8,0-3.3-1.5-3.3-3.4s1.5-3.4,3.3-3.4,3.3,1.5,3.3,3.4-1.5,3.4-3.3,3.4"/>
        <path class="cls-2" d="M77.5,71c-1.1,0-2.1,1-2.1,2.1s.9,2.1,2.1,2.1,2.1-1,2.1-2.1-.9-2.1-2.1-2.1M77.5,76.5c-1.8,0-3.3-1.5-3.3-3.4s1.5-3.4,3.3-3.4,3.3,1.5,3.3,3.4-1.5,3.4-3.3,3.4"/>
        <path class="cls-2" d="M73.5,85.4c.3,0,.6.3.6.6,0,.6.5,1.2,1.1,1.2h4.5c.6,0,1.1-.5,1.1-1.1,0,0,0,0,0,0,0-.3.3-.6.6-.6h0c.3,0,.6.3.6.6,0,.5.3.9.7,1,0,0,.1,0,.2,0,0,0,0,0,0,0h0s0,0,0,0h0c0,0,.1,0,.2,0,.4-.1.7-.6.7-1s0,0,0,0v-4.7c0-.9-.5-1.8-1.3-2.3-.4-.2-.8-.4-1.3-.4h-8c-.4,0-.9.1-1.3.4-.8.5-1.3,1.3-1.3,2.3v4.7s0,0,0,0c0,.5.3.9.7,1,0,0,.1,0,.2,0h.1s0,0,0,0h0c0,0,.1,0,.2,0,.4-.1.7-.6.7-1s.3-.6.6-.6M79.8,88.4h-4.5c-.7,0-1.3-.3-1.7-.8-.3.3-.6.5-.9.6,0,0,0,0,0,0-.1,0-.2,0-.4,0,0,0,0,0-.1,0,0,0-.1,0-.2,0,0,0,0,0-.1,0-.1,0-.3,0-.4,0,0,0,0,0,0,0-.9-.3-1.5-1.2-1.5-2.2,0,0,0,0,0,0v-4.7c0-1.4.7-2.7,1.9-3.4.6-.3,1.2-.5,1.9-.5h8c.7,0,1.3.2,1.9.5h0c1.2.7,1.9,2,1.9,3.4v4.7s0,0,0,0c0,1-.7,1.8-1.5,2.1,0,0,0,0,0,0-.1,0-.2,0-.4,0,0,0,0,0,0,0v-.6c0,0,0,.6,0,.6,0,0-.1,0-.2,0v-.6s0,.6,0,.6c0,0,0,0,0,0-.1,0-.3,0-.4,0-.4-.1-.7-.3-1-.6-.4.5-1,.8-1.7.8"/>
        <path class="cls-2" d="M73.5,86.7c-.3,0-.6-.3-.6-.6v-2.6c0-.3.3-.6.6-.6s.6.3.6.6v2.6c0,.3-.3.6-.6.6"/>
        <path class="cls-2" d="M81.5,86.7c-.3,0-.6-.3-.6-.6v-2.6c0-.3.3-.6.6-.6s.6.3.6.6v2.6c0,.3-.3.6-.6.6"/>
        <path class="cls-2" d="M77.1,68.5c0,0-.1,0-.2,0-.3,0-.4-.3-.4-.6s0-.1,0-.2c0-.3.4-.5.7-.4,0,0,0,0,0,0,.3,0,.4.3.4.6s0,.1,0,.2c0,.3-.3.4-.6.4"/>
        <path class="cls-2" d="M66.2,68.5s0,0,0,0c-.1,0-.3,0-.4,0-.3,0-.5-.4-.4-.8,0-.3.4-.5.7-.4,0,0,.1,0,.2,0,.3,0,.6.3.5.7,0,.3-.3.6-.6.6"/>
        <path class="cls-2" d="M66.8,68.5c-.3,0-.5-.2-.6-.4,0,0,0-.1,0-.2,0-.3.2-.5.4-.6.3,0,.7,0,.8.4,0,0,0,.1,0,.2,0,.3-.2.5-.4.6,0,0,0,0,0,0,0,0-.1,0-.2,0"/>
        <path class="cls-2" d="M66.4,68.5s0,0-.1,0c-.3,0-.6-.3-.6-.7,0-.3.3-.6.6-.6h0c.3,0,.6.3.6.6s-.3.6-.6.6"/>
        <path class="cls-2" d="M66.5,68.5s0,0,0,0c-.3,0-.6-.3-.6-.6,0-.3.2-.6.6-.6h0s0,0,0,0c0,0,0,0,0,0,0,0,0,0,0,0,.3,0,.6.2.7.6,0,.3-.2.6-.5.7,0,0,0,0,0,0,0,0,0,0,0,0h0s0,0,0,0"/>
        <path class="cls-2" d="M77.5,68.5c-.3,0-.6-.3-.6-.6s.3-.6.6-.6h0s0,.6,0,.6v.6s0,0,0,0"/>
        <path class="cls-2" d="M77.7,68.5c-.3,0-.6-.2-.6-.6,0-.3.2-.6.5-.7,0,0,.1,0,.2,0,.3,0,.7,0,.7.4,0,.3,0,.7-.4.8-.1,0-.3,0-.4,0,0,0,0,0,0,0,0,0,0,0,0,0"/>
        <path class="cls-2" d="M77.4,68.5s0,0,0,0c0,0,0,0,0,0,0,0,0,0,0,0,0,0,0,0,0,0-.3,0-.5-.4-.5-.7,0-.3.3-.6.7-.6h0s0,0,0,0h0c.3,0,.6.3.6.7,0,.3-.3.6-.6.6"/>
        <path class="cls-2" d="M78,68.5c-.3,0-.5-.2-.6-.4,0-.3,0-.7.4-.8.4-.1.7-.6.7-1s.3-.6.6-.6.6.3.6.6h0s0,0,0,0c0,1-.6,1.9-1.6,2.2,0,0-.1,0-.2,0"/>
        <path class="cls-2" d="M65.9,68.5c0,0-.1,0-.2,0-.9-.3-1.6-1.2-1.6-2.2h0c0,0,0,0,0,0,0-.3.3-.6.6-.6h0c.3,0,.6.3.6.6,0,.5.3.9.7,1,.3.1.5.4.4.8,0,.3-.3.4-.6.4"/>
        <path class="cls-2" d="M66.5,68.5c-.3,0-.6-.2-.6-.6,0-.3.2-.6.5-.7,0,0,.1,0,.2,0,.3,0,.7,0,.7.4,0,.3,0,.7-.4.8-.1,0-.3,0-.4,0,0,0,0,0,0,0"/>
        <path class="cls-2" d="M66.8,68.5c-.3,0-.5-.2-.6-.4,0-.3,0-.7.4-.8.4-.1.7-.6.7-1s.3-.6.6-.6.6.3.6.6h0c0,1.1-.6,1.9-1.6,2.2,0,0-.1,0-.2,0"/>
        <path class="cls-2" d="M66.3,68.5s0,0,0,0c0,0,0,0,0,0,0,0,0,0,0,0,0,0,0,0,0,0-.3,0-.5-.3-.5-.7,0-.3.3-.6.7-.6,0,0,0,0,0,0s0,0,0,0h0c.3,0,.6.3.6.7,0,.3-.3.6-.6.6"/>
        <path class="cls-2" d="M66.4,68.5c-.3,0-.6-.3-.6-.6s.3-.6.6-.6h0c.3,0,.6.2.6.6,0,.3-.2.6-.6.7v-.6s0,.6,0,.6c0,0,0,0-.1,0"/>
        <path class="cls-2" d="M65.9,68.5c0,0-.1,0-.2,0,0,0,0,0,0,0-.3,0-.5-.4-.4-.8,0-.3.4-.5.7-.4,0,0,0,0,0,0,.3.1.5.4.4.8,0,.3-.3.4-.6.4"/>
        <path class="cls-2" d="M78,68.5c-.3,0-.5-.2-.6-.5,0,0,0-.1,0-.2,0-.3.2-.5.4-.6.3,0,.6,0,.7.4,0,0,0,.1,0,.2,0,.3-.2.5-.4.6,0,0,0,0,0,0,0,0-.1,0-.2,0"/>
        <path class="cls-2" d="M77.6,68.5s0,0,0,0c-.3,0-.6-.3-.6-.6,0-.3.2-.6.5-.6,0,0,0,0,0,0s0,0,0,0c0,0,0,0,0,0,.3,0,.6.2.7.6,0,.3-.2.6-.5.7,0,0,0,0,0,0,0,0,0,0,0,0,0,0,0,0,0,0,0,0,0,0,0,0"/>
        <path class="cls-2" d="M77.5,68.5s0,0-.1,0c-.3,0-.6-.3-.6-.7,0-.3.2-.5.4-.6,0,0,.1,0,.2,0h0c.3,0,.6.3.6.6s-.3.6-.6.6"/>
        <path class="cls-2" d="M77.4,68.5s0,0,0,0c0,0,0,0,0,0-.1,0-.3,0-.4,0-.3,0-.5-.4-.4-.8,0-.3.4-.5.7-.4,0,0,.1,0,.2,0h0c.3,0,.6.3.5.7,0,.3-.3.6-.6.6"/>
        <path class="cls-2" d="M77.1,68.5c0,0-.1,0-.2,0-.9-.3-1.6-1.2-1.6-2.2h0c0-.4.3-.7.6-.7h0c.3,0,.6.3.6.6,0,.5.3.9.7,1,.3.1.5.4.4.8,0,.3-.3.4-.6.4"/>
        <path class="cls-2" d="M64.8,66.8c-.3,0-.6-.3-.6-.6v-2.1c0-.3.3-.6.6-.6s.6.3.6.6v2.1c0,.3-.3.6-.6.6"/>
        <path class="cls-2" d="M78.7,58.9c.6.7,1,1.6,1,2.6v4.7c0,.6.5,1.1,1.1,1.1h4.5c.6,0,1.1-.5,1.1-1.1,0,0,0,0,0,0v-2.1c0-.3.3-.6.6-.6s.6.3.6.6v2s0,0,0,0c0,.6.4,1,.9,1.1.3,0,.6,0,.8-.3s.3-.5.3-.7v-4.8c0-1.5-1.2-2.6-2.6-2.6h-8c-.1,0-.3,0-.4,0M85.4,68.6h-4.5c-1.3,0-2.3-1.1-2.3-2.4v-4.7c0-.9-.5-1.8-1.3-2.3-.2-.1-.3-.3-.3-.5s.1-.4.3-.5c.6-.3,1.2-.5,1.9-.5h8c2.1,0,3.8,1.7,3.8,3.9v4.8c0,.6-.3,1.2-.7,1.7-.5.4-1.1.6-1.7.6-.5,0-1-.3-1.4-.7-.4.5-1,.8-1.7.8"/>
        <path class="cls-2" d="M83.1,51.1c-1.1,0-2.1,1-2.1,2.1s.9,2.1,2.1,2.1,2.1-1,2.1-2.1-.9-2.1-2.1-2.1M83.1,56.6c-1.8,0-3.3-1.5-3.3-3.4s1.5-3.4,3.3-3.4,3.3,1.5,3.3,3.4-1.5,3.4-3.3,3.4"/>
        <path class="cls-2" d="M71.9,51.1c-1.1,0-2.1,1-2.1,2.1s.9,2.1,2.1,2.1,2.1-1,2.1-2.1-.9-2.1-2.1-2.1M71.9,56.6c-1.8,0-3.3-1.5-3.3-3.4s1.5-3.4,3.3-3.4,3.3,1.5,3.3,3.4-1.5,3.4-3.3,3.4"/>
        <path class="cls-2" d="M68,65.6c.3,0,.6.3.6.6,0,.6.5,1.2,1.1,1.2h4.5c.6,0,1.1-.5,1.1-1.1,0,0,0,0,0,0,0-.3.3-.6.6-.6h0c.3,0,.6.3.6.6,0,.5.3.9.7,1,0,0,.1,0,.2,0,0,0,0,0,0,0h0s.1,0,.1,0c0,0,.1,0,.2,0,.4-.1.7-.6.7-1s0,0,0,0v-4.7c0-.9-.5-1.8-1.3-2.3-.4-.2-.8-.4-1.3-.4h-8c-.4,0-.9.1-1.3.4-.8.5-1.3,1.3-1.3,2.3v4.7s0,0,0,0c0,.5.3.9.7,1,0,0,.1,0,.2,0,0,0,0,0,0,0h0s0,0,0,0h0c0,0,.1,0,.2,0,.4-.1.7-.6.7-1s.3-.6.6-.6M74.2,68.6h-4.5c-.7,0-1.3-.3-1.7-.8-.3.3-.6.5-.9.6,0,0,0,0,0,0-.1,0-.2,0-.4,0,0,0,0,0,0,0-.1,0-.2,0-.2,0,0,0,0,0-.1,0-.1,0-.3,0-.4,0-.9-.3-1.6-1.2-1.6-2.2,0,0,0,0,0,0v-4.7c0-1.4.7-2.7,1.9-3.4.6-.3,1.2-.5,1.9-.5h8c.7,0,1.3.2,1.9.5h0c1.2.7,1.9,2,1.9,3.4v4.7s0,0,0,0c0,1-.7,1.8-1.5,2.1,0,0,0,0,0,0-.1,0-.2,0-.4,0,0,0,0,0,0,0-.1,0-.2,0-.3,0,0,0,0,0-.1,0-.1,0-.3,0-.4,0-.4-.1-.7-.3-1-.6-.4.5-1,.8-1.7.8"/>
        <path class="cls-2" d="M68,66.8c-.3,0-.6-.3-.6-.6v-2.6c0-.3.3-.6.6-.6s.6.3.6.6v2.6c0,.3-.3.6-.6.6"/>
        <path class="cls-2" d="M75.9,66.8c-.3,0-.6-.3-.6-.6v-2.6c0-.3.3-.6.6-.6s.6.3.6.6v2.6c0,.3-.3.6-.6.6"/>
      </g>
    </g>
  </g>
</svg>