<?xml version="1.0" encoding="UTF-8"?>
<svg xmlns="http://www.w3.org/2000/svg" xmlns:xlink="http://www.w3.org/1999/xlink" version="1.1" viewBox="0 0 155.3 129.8">
  <defs>
    <style>
      .cls-1 {
        fill: none;
      }

      .cls-2 {
        mask: url(#mask);
      }

      .cls-3 {
        fill: #1d1d1b;
        mix-blend-mode: multiply;
        opacity: 0;
      }

      .cls-4 {
        isolation: isolate;
      }

      .cls-5 {
        fill: #98c2fd;
      }

      .cls-6 {
        clip-path: url(#clippath-1);
      }

      .cls-7 {
        clip-path: url(#clippath-3);
      }

      .cls-8 {
        clip-path: url(#clippath-2);
      }

      .cls-9 {
        clip-path: url(#clippath);
      }
    </style>
    <clipPath id="clippath">
      <rect class="cls-1" x="28.9" y="25.6" width="101.5" height="73.8"/>
    </clipPath>
    <clipPath id="clippath-1">
      <rect class="cls-1" x="28.9" y="25.6" width="101.5" height="73.8"/>
    </clipPath>
    <clipPath id="clippath-2">
      <rect class="cls-1" x="28.9" y="25.6" width="101.8" height="75.4"/>
    </clipPath>
    <mask id="mask" x="28.9" y="25.6" width="101.8" height="75.4" maskUnits="userSpaceOnUse">
      <g class="cls-8">
        <image width="212" height="157" transform="translate(28.9 25.6) scale(.5)" xlink:href="Figures-icon-3-1.png"/>
      </g>
    </mask>
    <clipPath id="clippath-3">
      <rect class="cls-1" x="46.7" y="41.4" width="66.2" height="56.2"/>
    </clipPath>
  </defs>
  <!-- Generator: Adobe Illustrator 28.7.1, SVG Export Plug-In . SVG Version: 1.2.0 Build 142)  -->
  <g class="cls-4">
    <g id="Layer_1">
      <g class="cls-9">
        <g class="cls-6">
          <g class="cls-2">
            <g class="cls-7">
              <rect class="cls-3" x="46.7" y="41.4" width="66.2" height="56.2"/>
            </g>
          </g>
          <path class="cls-5" d="M62.8,62.7c-1.4,0-3-.5-4.2-2-.3-.4-.2-.9.2-1.2.4-.3.9-.2,1.2.2,1.9,2.3,4.5,1,4.6,1,0,0,0,0,0,0,0,0,1-.5.9-1.6-.1-1.3-1.4-1.6-1.4-1.7,0,0-1.5-.4-3-.9-2.2-.6-2.6-2-2.6-3.1,0-.8.4-3.2,4.4-3.2s0,0,.1,0c2.7,0,4,1.9,4.3,2.8.1.4-.1.9-.6,1-.5.1-.9-.1-1.1-.6,0-.2-.6-1.6-2.7-1.7-1.8,0-2.7.5-2.7,1.6,0,.6.2,1.2,1.4,1.6,1.5.4,3,.9,3,.9,0,0,2.4.7,2.7,3.1.2,1.9-1.2,3-1.9,3.3-.6.3-1.5.6-2.6.6"/>
          <path class="cls-5" d="M63,51.8c-.5,0-.9-.4-.9-.8v-2.3c0-.5.4-.8.9-.8s.9.4.9.8v2.3c0,.5-.4.8-.9.8"/>
          <path class="cls-5" d="M63,65.2c-.5,0-.9-.4-.9-.8v-2.3c0-.5.4-.8.9-.8s.9.4.9.8v2.3c0,.5-.4.8-.9.8"/>
          <path class="cls-5" d="M62.9,45.7c-6.5,0-11.8,5-11.8,11.2s5.3,11.2,11.8,11.2,11.8-5,11.8-11.2-5.3-11.2-11.8-11.2M62.9,69.6c-7.4,0-13.5-5.7-13.5-12.8s6.1-12.8,13.5-12.8,13.5,5.7,13.5,12.8-6.1,12.8-13.5,12.8"/>
          <path class="cls-5" d="M100.2,91.7c-.5,0-.9-.4-.9-.8v-5.2c0-.5.4-.8.9-.8s.9.4.9.8c0,1,.8,1.9,1.8,2,.6,0,1.1-.1,1.5-.5.4-.4.7-.9.7-1.4v-14.4c0-2.5-2.2-4.6-4.9-4.6h-14.4c-.9,0-1.9.3-2.8,1l-6.3,4.6c0,0-.2.1-.3.1l-6.6,2c-.5.1-.8.4-1,.8-.2.4-.2.9,0,1.3.3.7,1.1,1.2,1.9,1l3.8-.7c2.3-.4,4.5-1.1,6.7-2l4.3-1.9c.3-.1.6,0,.8,0,.2.1.4.4.4.7v11.8c0,.5-.4.8-.9.8s-.9-.4-.9-.8v-10.5l-3.1,1.3c-2.2,1-4.6,1.7-7.1,2.1l-3.8.7c-1.6.3-3.3-.6-3.9-2.1-.3-.8-.3-1.8.1-2.6.4-.8,1.1-1.4,2.1-1.7l6.5-2,6.1-4.5c1.1-.8,2.5-1.3,3.8-1.3h14.5c3.6,0,6.6,2.8,6.6,6.3v14.4c0,1-.4,2-1.2,2.6-.8.7-1.8,1-2.9.9-.6,0-1.2-.3-1.6-.6v2.1c0,.5-.4.8-.9.8"/>
          <path class="cls-5" d="M85.7,91.7c-.5,0-.9-.4-.9-.8v-5.2c0-.5.4-.8.9-.8s.9.4.9.8v5.2c0,.5-.4.8-.9.8"/>
          <path class="cls-5" d="M100.2,66.8h-14.4c-.5,0-.9-.4-.9-.8s.4-.8.9-.8h14.4c.5,0,.9.4.9.8s-.4.8-.9.8"/>
          <path class="cls-5" d="M100.2,86.5c-.5,0-.9-.4-.9-.8v-11.8c0-.5.4-.8.9-.8s.9.4.9.8v11.8c0,.5-.4.8-.9.8"/>
          <path class="cls-5" d="M93,54c-2.2,0-4,1.7-4,3.8s1.8,3.8,4,3.8,4-1.7,4-3.8-1.8-3.8-4-3.8M93,63.1c-3.1,0-5.7-2.4-5.7-5.4s2.6-5.4,5.7-5.4,5.7,2.4,5.7,5.4-2.6,5.4-5.7,5.4"/>
        </g>
      </g>
    </g>
  </g>
</svg>