<?xml version="1.0" encoding="UTF-8"?>
<svg xmlns="http://www.w3.org/2000/svg" xmlns:xlink="http://www.w3.org/1999/xlink" version="1.1" viewBox="0 0 155.3 129.8">
  <defs>
    <style>
      .cls-1 {
        fill: none;
      }

      .cls-2 {
        fill: #98c2fd;
      }

      .cls-3 {
        clip-path: url(#clippath);
      }
    </style>
    <clipPath id="clippath">
      <rect class="cls-1" x="61.6" y="45.1" width="41.4" height="47.2"/>
    </clipPath>
  </defs>
  <!-- Generator: Adobe Illustrator 28.7.1, SVG Export Plug-In . SVG Version: 1.2.0 Build 142)  -->
  <g>
    <g id="Layer_1">
      <g class="cls-3">
        <path class="cls-2" d="M63,90.9h4.9v-16.1h-4.9v16.1ZM68.5,92.3h-6.2c-.4,0-.7-.3-.7-.7v-17.4c0-.4.3-.7.7-.7h6.2c.4,0,.7.3.7.7v17.4c0,.4-.3.7-.7.7"/>
        <path class="cls-2" d="M78.7,82.3c-.3,0-.6-.2-.7-.5-.1-.4,0-.7.5-.9l4.5-1.4c0,0,.2,0,.3,0l8.3,1.2c.5,0,1-.3,1.1-.7v-.3c.2-.5-.1-1-.6-1.1l-8.8-2.1c-.4,0-.7,0-1.1,0l-13.4,2.5c-.4,0-.7-.2-.8-.6s.2-.7.6-.8l13.4-2.5c.6-.1,1.1,0,1.7,0l8.8,2.1c1.2.3,2,1.5,1.7,2.8v.3c-.3,1.2-1.5,2-2.7,1.8l-8.2-1.2-4.3,1.3c0,0-.1,0-.2,0"/>
        <path class="cls-2" d="M78.1,88.9c-3.2,0-6.4-.2-9.7-.6-.4,0-.6-.4-.6-.8,0-.4.4-.7.8-.6,10.3,1.2,20.6.4,30.7-2.3l1.7-.5c.6-.2.7-.7.7-.8,0-.2,0-.7-.5-1-.1,0-.3-.1-.5-.1l-9.3-.2c-.4,0-.7-.3-.7-.7,0-.4.3-.7.7-.7l9.2.2h0c.4,0,.8,0,1.1.3.8.5,1.3,1.4,1.2,2.3-.1,1-.8,1.7-1.7,2l-1.7.5c-7.1,1.9-14.3,2.9-21.5,2.9"/>
        <path class="cls-2" d="M82.2,61.1c-1.1,0-2.4-.4-3.4-1.7-.2-.3-.2-.7.1-1,.3-.2.7-.2,1,.1,1.5,2,3.7.9,3.8.8,0,0,0,0,0,0,0,0,.8-.4.7-1.4-.1-1.1-1.2-1.4-1.2-1.4,0,0-1.3-.4-2.5-.7-1.8-.5-2.1-1.7-2.1-2.7,0-.8.3-1.4.8-1.9.6-.6,1.6-.8,2.8-.8,2.2,0,3.3,1.6,3.5,2.4.1.4-.1.7-.5.8-.4.1-.7-.1-.8-.5,0-.1-.5-1.4-2.2-1.4-.9,0-1.5.2-1.9.5-.2.2-.4.5-.4.9,0,.5.1,1.1,1.1,1.3,1.2.4,2.5.7,2.5.7,0,0,2,.6,2.2,2.6.1,1.6-.9,2.5-1.5,2.8-.5.3-1.3.5-2.1.5"/>
        <path class="cls-2" d="M82.4,51.7c-.4,0-.7-.3-.7-.7v-2c0-.4.3-.7.7-.7s.7.3.7.7v2c0,.4-.3.7-.7.7"/>
        <path class="cls-2" d="M82.4,63.2c-.4,0-.7-.3-.7-.7v-2c0-.4.3-.7.7-.7s.7.3.7.7v2c0,.4-.3.7-.7.7"/>
        <path class="cls-2" d="M82.3,46.5c-5.3,0-9.6,4.3-9.6,9.6s4.3,9.6,9.6,9.6,9.6-4.3,9.6-9.6-4.3-9.6-9.6-9.6M82.3,67c-6,0-11-4.9-11-11s4.9-11,11-11,11,4.9,11,11-4.9,11-11,11"/>
      </g>
    </g>
  </g>
</svg>