<svg xmlns="http://www.w3.org/2000/svg" width="3840" height="2160"><path fill="#006338" d="M469 820v62h133v35H469v113h-41V785h183v35H469zm198-2v213h40V818h-40zm162 35v61h37c24 0 57-2 57-31 0-20-16-30-49-30h-45zm137 26c0 31-18 54-50 63l69 89h-53l-64-82h-39v82h-40V818h97c44 0 80 13 80 61zm157 27c49 11 74 27 74 63 0 40-34 64-82 64-35 0-68-11-96-34l24-27c22 18 44 28 73 28 25 0 41-11 41-27s-9-24-52-33c-49-11-77-24-77-64 0-37 33-63 79-63 34 0 60 10 84 27l-22 28c-21-14-41-22-63-22-24 0-38 11-38 26 0 17 11 24 55 34zm107-88h206v35h-83v178h-41V853h-83v-35zm351-33h45l141 190V785h41v245h-45l-140-190v190h-41V785zm414 155l-33-79-33 79h65zm-53-122h44l90 213h-42l-26-56h-93l-26 56h-39l91-213zm136 0h206v35h-83v178h-41V853h-83v-35zm248 0v213h41V818h-41zm137 104c0 45 33 76 79 76s79-30 79-74-33-74-79-74-79 27-79 71zm79-106c69 0 120 39 120 106 0 68-51 111-120 111s-121-41-121-108c0-68 51-109 121-109zm171 2h45l128 163V818h40v213h-45l-127-164v164h-41V818zm402 122l-32-79-33 79h65zm-53-122h44l90 213h-42l-26-56h-93l-26 56h-39l91-213zm183 0h41v178h116v35h-156V818z"/><path fill="#828585" d="M448 1365v27h57v19h-57v49h-21v-113h84v18h-62zm115-18h21v113h-21v-113zm86 0h24l67 87v-87h21v113h-24l-67-87v87h-21v-113zm229 65l-17-42-17 42h34zm-28-65h23l48 113h-22l-13-30h-49l-13 30h-21l48-113zm119 0h24l67 87v-87h21v113h-24l-67-87v87h-21v-113zm263 90l7 16c-14 6-26 9-42 9-37 0-67-21-67-58 0-38 31-58 69-58 15 0 26 3 39 7l-7 17c-11-3-21-6-33-6-24 0-47 15-47 39 0 26 25 39 50 39 11 0 20-2 31-6zm48-90h21v113h-21v-113zm140 65l-17-42-17 42h34zm-28-65h23l48 113h-22l-13-30h-49l-13 30h-21l48-113zm114 0h21v95h61v18h-82v-113zm196 0h21v95h61v18h-82v-113zm158 18v32h22c12 0 29-2 29-17 0-16-21-16-33-16h-18zm-21-18h43c25 0 50 4 50 32 0 12-4 23-15 29-10 6-22 7-34 8h-23v44h-21v-113z"/><path fill="#EDB512" d="M3149 1682s163-65 163-189v-54h-247v65c0 70 76 123 73 126-2 4-112-50-112-132v-60h-39v54c0 124 163 189 163 189zM416 1177h3006v22h-257v32h11c133 0 179 73 179 108 0 59-50 83-50 83h-314s-50-25-50-83c0-34 46-108 179-108h7v-32H415v-22zm2663 166l-20-13c-3-2-8-2-10 0l-20 13c-3 2-3 5 0 7l20 13c3 2 8 2 10 0l20-13c3-2 3-5 0-7zm46 36c3-2 3-5 0-7l-20-13c-3-2-8-2-10 0l-20 13c-3 2-3 5 0 7l20 13c3 2 8 2 10 0l20-13zm-91 0c3-2 3-5 0-7l-20-13c-3-2-8-2-10 0l-20 13c-3 2-3 5 0 7l20 13c3 2 8 2 10 0l20-13zm0-59c3-2 3-5 0-7l-20-13c-3-2-8-2-10 0l-20 13c-3 2-3 5 0 7l20 13c3 2 8 2 10 0l20-13zm46-29c3-2 3-5 0-7l-20-13c-3-2-8-2-10 0l-20 13c-3 2-3 5 0 7l20 13c3 2 8 2 10 0l20-13zm46 29c3-2 3-5 0-7l-20-13c-3-2-8-2-10 0l-20 13c-3 2-3 5 0 7l20 13c3 2 8 2 10 0l20-13z"/></svg>