<svg version="1.1" id="Layer_1" xmlns="http://www.w3.org/2000/svg" xmlns:xlink="http://www.w3.org/1999/xlink" x="0px" y="0px"
	 width="100%" viewBox="0 0 1296 296" enable-background="new 0 0 1296 296" xml:space="preserve">
<path fill="#000000" opacity="1.000000" stroke="none" 
	d="
M1297.000000,193.000000 
	C1297.000000,227.653336 1297.000000,262.306671 1297.000000,297.000000 
	C959.309998,297.000000 621.619995,297.000000 283.465088,296.531342 
	C283.000122,230.240417 283.000122,164.418152 283.000122,98.595879 
	C282.461945,98.471596 281.923798,98.347313 281.385620,98.223030 
	C280.364197,99.600716 279.093597,100.860222 278.372681,102.380409 
	C276.818726,105.657043 275.740845,109.164108 274.125305,112.406021 
	C268.407593,123.879738 262.479065,135.248413 256.758728,146.720856 
	C251.977737,156.309341 247.375320,165.986877 242.695724,175.625900 
	C239.806610,181.576889 236.876221,187.508377 234.045883,193.487213 
	C230.934189,200.060379 227.997879,206.717270 224.839493,213.267441 
	C218.902390,225.580475 212.911957,237.868469 206.843704,250.117340 
	C202.975098,257.926117 198.811462,265.589630 194.991257,273.421265 
	C191.190125,281.213837 187.652939,289.135132 184.000000,297.000000 
	C164.310013,297.000000 144.620010,297.000000 124.509064,296.627808 
	C128.516739,286.935394 133.020142,277.649567 137.334747,268.276825 
	C138.912064,264.850372 139.760559,261.079163 141.425476,257.703949 
	C147.155838,246.086990 153.174728,234.612579 158.938110,223.011520 
	C163.160889,214.511490 167.282516,205.955597 171.197495,197.310623 
	C173.136551,193.028793 174.507935,188.489853 176.146164,184.040070 
	C175.018143,183.545975 174.579819,183.187149 174.140106,183.185440 
	C156.819626,183.118637 139.496872,182.955093 122.181717,183.242859 
	C120.423676,183.272095 117.996330,185.702560 117.092979,187.597244 
	C110.992874,200.391602 105.344139,213.400421 99.306725,226.225616 
	C93.061104,239.493118 86.536835,252.629395 80.144524,265.827942 
	C78.946022,268.302551 77.758469,270.783630 76.628731,273.290100 
	C73.069748,281.186157 69.540649,289.095673 66.000000,297.000000 
	C45.643341,297.000000 25.286684,297.000000 4.379241,296.619293 
	C4.757356,293.761627 5.506828,291.198456 6.648373,288.823700 
	C10.262057,281.306244 14.207915,273.944153 17.676418,266.362366 
	C21.555376,257.883392 24.839735,249.130920 28.767220,240.676025 
	C34.442757,228.457993 40.566612,216.448883 46.307507,204.260361 
	C51.483047,193.272110 56.321266,182.125336 61.457684,171.118195 
	C65.473297,162.512878 69.841286,154.071442 73.826248,145.452499 
	C77.909622,136.620712 81.622910,127.618225 85.675591,118.771721 
	C89.016510,111.478928 92.719818,104.352371 96.073952,97.065346 
	C99.704247,89.178345 102.959000,81.116737 106.660835,73.264854 
	C111.833733,62.292717 117.400246,51.505821 122.550171,40.523296 
	C126.582672,31.923742 130.235794,23.146357 134.062302,14.450105 
	C136.036102,9.964351 138.020432,5.483222 140.000000,1.000002 
	C525.666687,1.000000 911.333313,1.000000 1297.000000,1.000000 
	C1297.000000,54.438126 1297.000000,107.754051 1296.537231,161.615387 
	C1269.412964,162.109863 1242.751099,162.113083 1216.090332,161.950195 
	C1212.044556,161.925491 1211.079224,163.676102 1210.912231,167.364990 
	C1210.677856,172.544128 1210.033813,177.742676 1209.080444,182.842361 
	C1207.666016,190.406418 1209.370239,193.604034 1214.960693,192.965500 
	C1218.087402,192.608353 1219.142090,190.739685 1220.105103,187.895370 
	C1224.035767,176.286087 1229.022461,170.314957 1239.834229,170.947495 
	C1242.704712,171.115417 1244.037842,171.840973 1244.024780,174.955139 
	C1243.937500,195.785324 1244.150757,216.618286 1243.883545,237.445450 
	C1243.773804,245.990402 1242.581055,246.960556 1235.123413,248.796326 
	C1229.466553,250.188843 1229.194702,250.685684 1231.088867,256.992310 
	C1244.391357,256.992310 1257.859985,257.013184 1271.328125,256.970001 
	C1273.374756,256.963440 1275.838867,257.545410 1275.985107,254.081085 
	C1276.118774,250.919159 1275.299194,249.371918 1271.722290,248.836670 
	C1264.171143,247.706757 1263.018311,245.975983 1263.003418,238.272232 
	C1262.989258,230.939865 1262.999268,223.607452 1263.000244,216.275070 
	C1263.001953,202.776810 1263.110962,189.277176 1262.938599,175.781158 
	C1262.890991,172.047638 1264.137085,170.775116 1267.841675,170.954758 
	C1275.792358,171.340317 1280.606323,173.972839 1284.278076,181.982254 
	C1286.668213,187.196213 1287.762695,195.178879 1297.000000,193.000000 
M355.879211,237.804916 
	C354.860718,244.546921 350.148590,246.170837 344.302948,245.989182 
	C339.598297,245.842972 340.107819,249.050308 339.974915,252.097504 
	C339.839844,255.194199 340.389587,257.083008 344.223999,257.048584 
	C360.721863,256.900452 377.222626,256.899109 393.720428,257.051086 
	C397.510345,257.086029 398.190430,255.305847 398.023621,252.152161 
	C397.864380,249.141190 398.477600,245.868958 393.745911,245.999786 
	C384.091278,246.266754 381.416382,242.688110 381.074158,232.396851 
	C380.747498,222.574860 381.128204,212.731125 380.942596,202.901764 
	C380.874359,199.288300 381.935425,197.894882 385.738525,197.935135 
	C401.569366,198.102737 417.403992,198.100616 433.234894,197.935974 
	C437.005859,197.896774 438.121124,199.230682 438.058685,202.874969 
	C437.876007,213.537994 438.017914,224.206268 437.991089,234.872375 
	C437.971619,242.622833 435.115784,245.853439 427.231720,245.886154 
	C422.359131,245.906403 422.073669,248.366287 421.900879,252.170151 
	C421.705292,256.475281 423.744202,257.071228 427.305603,257.044830 
	C442.804047,256.929901 458.303833,257.008850 473.803131,256.992493 
	C480.129852,256.985809 480.106140,256.754089 480.051361,250.557877 
	C480.007385,245.587204 476.738312,246.062424 473.544006,245.993515 
	C467.237274,245.857468 464.082642,243.227295 464.069885,237.658859 
	C464.003143,208.493698 464.004425,179.328293 464.051636,150.163086 
	C464.059509,145.284546 466.832214,142.566849 471.647827,141.991348 
	C474.365845,141.666519 477.052490,141.079346 479.962219,140.574081 
	C479.962219,137.815506 480.414581,135.524933 479.809601,133.559891 
	C479.377350,132.155991 477.539490,130.193680 476.306122,130.177185 
	C459.476654,129.952118 442.642975,129.985916 425.811279,130.099182 
	C424.598602,130.107346 422.706268,130.931702 422.298401,131.879456 
	C419.981079,137.263901 422.621826,141.376831 428.509735,142.023758 
	C435.612457,142.804153 437.824066,144.695816 437.934174,151.017960 
	C438.114075,161.347626 437.909485,171.683548 438.025848,182.015030 
	C438.060730,185.109985 436.764313,186.041748 433.848022,186.028030 
	C417.682495,185.951965 401.516083,185.937286 385.350861,186.041534 
	C382.150116,186.062164 380.911743,184.981720 380.963623,181.713669 
	C381.109100,172.549744 380.492554,163.343567 381.163727,154.226715 
	C381.828644,145.194687 382.983582,142.481506 392.500793,141.934494 
	C393.626862,141.869766 395.480133,141.654404 395.710785,141.032272 
	C396.705505,138.349396 397.555725,135.506317 397.702332,132.682297 
	C397.744904,131.862274 395.282684,130.150818 393.954956,130.136688 
	C377.290985,129.959152 360.624268,129.983673 343.959076,130.087265 
	C342.709717,130.095032 340.776581,130.771790 340.334656,131.697662 
	C337.809174,136.988464 340.577393,141.437546 346.459381,141.991608 
	C353.951447,142.697311 355.971680,144.806686 355.979340,152.432938 
	C356.007568,180.598114 355.968384,208.763351 355.879211,237.804916 
M217.408035,99.891724 
	C217.756454,98.788849 217.976089,97.623901 218.473068,96.592613 
	C223.939682,85.248833 229.447281,73.924805 234.949051,62.597992 
	C236.318466,59.778698 235.750839,57.872986 233.016434,55.921768 
	C227.100891,51.700577 221.545807,46.977928 215.773148,42.551842 
	C209.385971,37.654583 202.942215,32.830112 196.475540,28.038109 
	C194.592773,26.642925 193.079025,26.480772 191.830215,29.193356 
	C188.002655,37.507420 183.895599,45.692360 179.942856,53.949352 
	C175.585617,63.051315 171.199753,72.140984 166.974640,81.304367 
	C163.456985,88.933411 160.218857,96.690979 156.736526,104.336784 
	C153.590485,111.244179 150.292252,118.082458 147.041245,124.941795 
	C143.598648,132.205399 140.106598,139.445663 136.689194,146.721039 
	C135.259949,149.763809 136.482681,151.003326 139.676620,150.996429 
	C156.831024,150.959427 173.986252,151.040024 191.138718,150.852600 
	C192.540497,150.837311 194.603638,149.438034 195.212021,148.142838 
	C202.628494,132.353806 209.829926,116.463791 217.408035,99.891724 
M621.826294,199.694489 
	C618.169250,189.815140 614.586548,179.907455 610.832031,170.065308 
	C607.743530,161.968918 607.653198,162.003021 598.479004,162.002304 
	C593.480469,162.001923 588.481873,161.991821 583.483398,162.005981 
	C576.470703,162.025864 576.076050,162.548477 577.773132,169.450119 
	C588.899353,172.000244 590.098145,173.773315 588.114807,185.223190 
	C587.595825,188.219208 586.471008,191.126450 586.118347,194.132416 
	C584.326538,209.405716 582.620972,224.690277 581.054993,239.988266 
	C580.554199,244.880539 578.045654,247.783188 573.318481,247.874146 
	C569.101624,247.955292 569.022522,250.188873 568.959045,253.321106 
	C568.880310,257.208771 571.352539,257.005219 573.936096,257.000305 
	C582.433594,256.984131 590.931885,256.926819 599.428162,257.027100 
	C602.370422,257.061829 604.144348,256.502594 604.059998,252.954956 
	C603.986877,249.875610 603.594910,248.144547 599.811279,247.865891 
	C593.015320,247.365402 591.448975,245.832764 592.113953,239.142242 
	C593.648193,223.706451 595.779602,208.330017 597.668762,192.929504 
	C598.148804,192.884216 598.628845,192.838943 599.108887,192.793655 
	C603.352417,203.430878 607.579041,214.074890 611.844421,224.703323 
	C615.812256,234.590363 619.659302,244.533051 623.989014,254.260025 
	C624.632812,255.706284 627.612366,256.706665 629.556824,256.785095 
	C631.013000,256.843811 633.267151,255.433334 633.909729,254.080322 
	C636.295715,249.056656 638.273743,243.827377 640.201782,238.600372 
	C645.547729,224.107040 650.777039,209.570694 656.105103,195.070724 
	C656.498047,194.001373 657.311890,193.086700 658.511414,191.172165 
	C659.428162,199.760498 660.185364,207.140076 661.011841,214.511871 
	C661.785645,221.414230 661.802124,228.541641 663.657104,235.147324 
	C665.997620,243.481720 664.357788,247.484848 656.046631,247.916855 
	C652.553101,248.098434 652.009888,249.682312 651.947632,252.617676 
	C651.880310,255.793823 652.917786,257.078766 656.231567,257.039459 
	C667.726562,256.903137 679.224487,256.940887 690.720520,257.019745 
	C693.522949,257.038940 695.132202,256.341705 695.015076,253.129318 
	C694.910767,250.269272 694.973267,247.865494 690.928345,247.924515 
	C686.769714,247.985184 684.440308,246.028336 683.852783,241.372421 
	C682.206787,228.330505 679.852295,215.378632 678.164856,202.341080 
	C677.082397,193.977722 676.717102,185.522812 675.966370,177.114655 
	C675.662109,173.706406 677.178223,171.912903 680.427368,171.051270 
	C686.793274,169.363083 686.943298,168.968613 684.958008,162.067429 
	C676.317505,162.067429 667.519592,162.001831 658.725952,162.166718 
	C657.825256,162.183609 656.481445,163.409821 656.133728,164.363190 
	C650.345032,180.233704 644.720215,196.163879 638.968384,212.047989 
	C637.319519,216.601395 635.384705,221.051270 633.581055,225.548630 
	C633.118164,225.592087 632.655273,225.635544 632.192322,225.679001 
	C628.792542,217.271683 625.392761,208.864365 621.826294,199.694489 
M929.240906,154.211655 
	C931.394287,158.619781 933.551697,163.025925 935.699646,167.436676 
	C937.262146,170.645126 941.942078,172.548904 945.805603,170.626785 
	C947.003174,170.030991 947.294922,166.611862 947.171448,164.534668 
	C946.606018,155.023468 945.534973,145.539749 945.085266,136.025360 
	C944.876770,131.613434 943.449036,129.865326 938.854004,129.923477 
	C922.698975,130.127960 906.539734,129.999176 890.382080,129.999908 
	C872.891846,130.000717 855.401611,130.019180 837.911377,129.992645 
	C835.200256,129.988525 833.135437,130.140930 832.948975,133.823471 
	C832.501404,142.665985 831.667419,151.489212 830.962463,160.318069 
	C830.883850,161.302887 830.479675,162.275208 830.488647,163.250916 
	C830.513062,165.920273 828.054382,169.491974 832.330444,170.816101 
	C837.849365,172.525116 841.464661,170.552185 842.982971,165.988953 
	C844.129517,162.542908 845.335144,159.032776 847.130310,155.904556 
	C850.404480,150.199158 853.440308,143.855011 860.914673,142.646225 
	C864.973389,141.989822 869.175720,142.250305 873.308167,142.010330 
	C876.197876,141.842514 877.012390,143.291473 877.008423,145.945862 
	C876.964783,175.595840 877.047424,205.246201 876.932617,234.895798 
	C876.906677,241.596970 872.760132,245.494690 866.000793,245.979813 
	C864.673340,246.075073 863.283508,245.894547 862.023376,246.225632 
	C857.805542,247.333878 858.925964,250.899353 859.197144,253.638794 
	C859.315613,254.835449 861.183655,256.805817 862.275024,256.817993 
	C880.095825,257.016907 897.919678,256.988770 915.742065,256.879333 
	C916.776123,256.872955 918.379883,255.969727 918.738586,255.086090 
	C920.841553,249.905411 918.436584,246.275101 912.972351,246.001266 
	C904.743652,245.588867 901.012024,241.691422 901.004456,233.417328 
	C900.988342,215.760529 900.997620,198.103714 900.999207,180.446899 
	C901.000244,169.119904 900.909607,157.791046 901.128052,146.468201 
	C901.156616,144.989700 902.737061,142.304260 903.679199,142.267975 
	C915.542542,141.811127 922.526672,140.481277 929.240906,154.211655 
M1008.805725,243.794449 
	C1011.980774,247.745850 1015.007996,251.832886 1018.427307,255.560287 
	C1019.368469,256.586243 1021.471497,256.881927 1023.056396,256.922150 
	C1029.048218,257.074158 1035.046997,256.922760 1041.041382,257.011383 
	C1043.661987,257.050110 1045.211182,256.284851 1044.988403,253.351135 
	C1044.807373,250.968231 1045.472900,248.773956 1041.729858,247.793472 
	C1037.997925,246.815979 1034.322144,244.529846 1031.371582,241.957413 
	C1028.097778,239.103256 1025.554932,235.364532 1022.905151,231.851501 
	C1018.789368,226.394852 1014.852295,220.803360 1010.674988,215.042282 
	C1012.112671,214.190262 1012.889954,213.544159 1013.783936,213.227524 
	C1028.307495,208.083069 1035.239990,196.080170 1031.586304,181.374573 
	C1029.000488,170.967194 1018.570618,162.481583 1004.913025,162.115540 
	C988.936157,161.687317 972.938538,162.068268 956.950684,161.976990 
	C953.850708,161.959290 953.020447,163.247345 952.951904,166.156967 
	C952.855286,170.260376 955.624451,170.573273 958.471313,170.972443 
	C963.726929,171.709351 965.974792,174.145065 965.982727,179.479324 
	C966.012329,199.464859 966.016052,219.450531 965.978577,239.436035 
	C965.968628,244.723190 963.212646,247.803375 957.864136,247.899078 
	C954.263428,247.963501 952.927917,248.999008 952.895996,252.784103 
	C952.858765,257.185638 955.394348,257.027557 958.390015,257.015228 
	C969.548462,256.969299 980.707275,256.976135 991.865784,257.009521 
	C994.678040,257.017944 997.120850,257.150391 997.079163,253.022141 
	C997.043518,249.489334 996.100159,248.061172 992.315491,247.865555 
	C986.356445,247.557556 985.031128,245.727615 985.005981,239.641876 
	C984.986755,234.978653 984.791016,230.301926 985.085388,225.657303 
	C985.245483,223.129990 986.263977,220.657074 986.895325,218.159622 
	C989.233704,219.903564 991.574463,221.644241 993.902466,223.401962 
	C994.006836,223.480759 993.951538,223.745895 994.043823,223.869614 
	C998.841431,230.302689 1003.646973,236.729828 1008.805725,243.794449 
M548.108276,252.740448 
	C559.117249,245.654190 566.542114,235.474762 569.452881,223.082764 
	C572.568481,209.818115 572.109436,196.424423 565.471375,183.595520 
	C560.734314,174.440704 554.156128,167.331833 544.794556,164.107330 
	C529.338623,158.783691 513.916626,158.498062 499.376648,168.191071 
	C490.212402,174.300369 484.348633,182.962936 481.526886,192.868301 
	C477.535431,206.879852 477.625549,220.999603 484.220886,234.982574 
	C491.711304,250.863358 505.178131,256.493011 520.791443,258.854370 
	C530.150391,260.269806 538.872314,256.520386 548.108276,252.740448 
M714.514160,162.002655 
	C711.515686,162.006180 708.515930,161.957214 705.518982,162.026031 
	C701.439758,162.119675 699.565735,164.431030 701.312500,168.001083 
	C702.021606,169.450394 704.602295,170.307388 706.495789,170.793518 
	C712.307739,172.285645 713.983215,174.104980 713.989380,179.965485 
	C714.009949,199.455780 714.009033,218.946136 713.991333,238.436447 
	C713.985229,245.133347 711.794922,247.638367 704.862366,247.917908 
	C701.173096,248.066666 701.021484,249.998581 700.972534,252.759384 
	C700.922302,255.596573 701.705017,257.033936 704.881958,257.023315 
	C728.703125,256.943512 752.524780,257.004852 776.345703,256.895782 
	C777.521301,256.890442 779.579773,255.868851 779.725098,255.052872 
	C781.000122,247.895355 781.972412,240.682251 782.947388,233.473831 
	C783.298523,230.877502 781.862244,230.163712 779.402527,229.948105 
	C775.848389,229.636581 774.713745,232.005157 772.946167,234.289688 
	C769.571106,238.651642 766.407776,244.898117 761.908203,246.270981 
	C754.939209,248.397293 746.921631,247.272415 739.352722,247.181946 
	C734.233826,247.120758 732.733948,243.815704 732.953430,239.080582 
	C733.184570,234.093796 733.003479,229.087952 733.003540,224.090424 
	C733.003723,212.999695 733.018066,213.337402 744.036865,212.882339 
	C751.422485,212.577301 757.193970,213.582321 758.624084,222.161133 
	C759.230713,225.800095 762.246826,225.336411 764.471619,224.725815 
	C765.581116,224.421280 766.832947,222.216629 766.873962,220.837387 
	C767.106628,213.014771 767.069214,205.180603 766.944397,197.353226 
	C766.911743,195.306030 768.057739,192.443008 764.256531,192.024918 
	C761.006104,191.667389 759.122620,192.592072 758.033997,195.966476 
	C755.811890,202.854340 753.989502,203.959091 746.778442,203.993668 
	C743.446899,204.009644 740.111877,203.889725 736.784607,204.006210 
	C733.980042,204.104370 732.963196,202.880478 732.991760,200.143677 
	C733.078674,191.815460 733.132141,183.483505 732.965759,175.157654 
	C732.897522,171.744186 734.417664,170.880661 737.483765,170.971237 
	C742.476807,171.118759 747.510498,171.365402 752.466980,170.912704 
	C759.157410,170.301666 763.480042,173.471817 766.845825,178.643906 
	C768.182434,180.697830 768.916626,183.331131 770.656738,184.877228 
	C772.107361,186.166168 774.620972,186.637009 776.675903,186.668182 
	C777.423645,186.679489 778.803833,184.403046 778.868530,183.118683 
	C779.128052,177.967407 778.742310,172.780594 779.065308,167.636459 
	C779.336426,163.317352 777.957947,161.858002 773.478943,161.910019 
	C754.157837,162.134430 734.832520,162.003952 714.514160,162.002655 
M1051.939819,237.324692 
	C1052.192017,238.280731 1052.370117,239.263824 1052.707642,240.188736 
	C1057.219238,252.549973 1068.050293,256.795990 1079.278076,258.662628 
	C1088.706909,260.230225 1098.732178,260.091034 1107.847168,255.520691 
	C1110.615356,254.132675 1113.660645,252.973831 1115.929688,250.973511 
	C1123.201782,244.562424 1126.093994,236.187332 1126.025757,226.583115 
	C1125.924194,212.261780 1125.997925,197.939209 1126.000854,183.617157 
	C1126.002930,173.432419 1126.446167,173.046524 1136.300537,170.780212 
	C1137.455322,170.514648 1138.780396,168.042725 1138.793945,166.582275 
	C1138.807617,165.092575 1137.334106,162.308380 1136.454346,162.285385 
	C1125.191895,161.991226 1113.919312,162.091263 1102.368652,162.091263 
	C1102.368652,165.277374 1102.368652,167.831543 1102.368652,170.548431 
	C1103.486450,170.721664 1104.279541,170.889847 1105.081299,170.961868 
	C1113.906616,171.754883 1114.983276,172.875778 1114.993652,181.558945 
	C1115.011108,196.214050 1115.259155,210.876984 1114.823486,225.519135 
	C1114.704346,229.522354 1113.060303,233.769562 1111.120972,237.368607 
	C1107.156860,244.725143 1099.726318,246.547134 1092.194824,246.848282 
	C1085.152954,247.129837 1078.297852,245.832703 1073.951294,239.162430 
	C1070.612305,234.038254 1068.933838,228.467300 1068.976440,222.309723 
	C1069.060547,210.153214 1069.005615,197.995728 1068.998657,185.838638 
	C1068.990601,171.684174 1069.619995,172.737579 1081.637939,170.281967 
	C1081.637939,167.791992 1081.637939,165.238403 1081.637939,161.997803 
	C1078.359619,161.997803 1075.406860,161.996429 1072.454102,161.998062 
	C1062.295532,162.003632 1052.133911,161.895874 1041.981812,162.154785 
	C1040.645264,162.188873 1038.340820,164.038208 1038.274048,165.153854 
	C1038.162354,167.021240 1039.075195,170.304047 1040.281860,170.683014 
	C1050.377197,173.853607 1050.985962,174.415451 1050.995972,185.156570 
	C1051.009888,200.144745 1050.969604,215.133087 1051.035522,230.120987 
	C1051.044922,232.245651 1051.521240,234.368271 1051.939819,237.324692 
M1145.422852,175.137756 
	C1144.615356,180.985397 1143.676514,186.818604 1143.031494,192.684113 
	C1142.109497,201.065399 1147.314941,206.690384 1153.313110,210.605148 
	C1159.399902,214.577988 1166.767822,216.551025 1173.464844,219.638351 
	C1178.238770,221.839157 1183.135620,223.993195 1187.430420,226.960312 
	C1193.440552,231.112488 1193.066162,239.684570 1187.851929,244.865280 
	C1182.824707,249.860352 1169.995972,250.195404 1163.979980,246.331635 
	C1157.835449,242.385513 1153.726318,236.734116 1152.007202,229.636917 
	C1150.975464,225.377426 1147.986450,226.050537 1145.027588,226.036301 
	C1141.625977,226.019928 1142.048462,228.473099 1142.022705,230.590073 
	C1141.978027,234.254776 1141.551392,237.998047 1142.146606,241.564590 
	C1142.775146,245.330338 1143.329590,250.735199 1145.827515,252.229889 
	C1151.345459,255.531570 1157.932739,257.445709 1164.322510,258.796661 
	C1173.767944,260.793640 1183.128174,259.468811 1192.182007,255.892242 
	C1198.489014,253.400726 1203.009399,249.029022 1205.964844,243.160446 
	C1209.587646,235.966583 1208.944702,228.069336 1207.085571,220.783020 
	C1204.954834,212.432236 1198.194214,207.499588 1190.360718,204.361557 
	C1183.165527,201.479248 1175.734375,199.138733 1168.698975,195.921585 
	C1164.155029,193.843796 1159.481201,191.125519 1159.045166,185.134369 
	C1158.661987,179.869263 1159.667358,174.937927 1165.031616,172.587463 
	C1171.040894,169.954376 1177.629395,169.452774 1183.141846,173.098328 
	C1188.634033,176.730469 1193.010986,181.890747 1194.022339,188.948868 
	C1194.558960,192.694611 1197.500854,192.336670 1199.746826,191.785339 
	C1201.048462,191.465836 1202.746094,189.444275 1202.836914,188.092804 
	C1203.193115,182.785370 1203.205444,177.424683 1202.845093,172.117737 
	C1202.737061,170.527069 1201.327148,168.179672 1199.955444,167.664200 
	C1193.539795,165.253159 1187.058594,162.361618 1180.360840,161.493576 
	C1166.848389,159.742325 1154.068359,161.513809 1145.422852,175.137756 
z"/>
<path fill="#004070" opacity="1.000000" stroke="none" 
	d="
M139.571533,1.000002 
	C138.020432,5.483222 136.036102,9.964351 134.062302,14.450105 
	C130.235794,23.146357 126.582672,31.923742 122.550171,40.523296 
	C117.400246,51.505821 111.833733,62.292717 106.660835,73.264854 
	C102.959000,81.116737 99.704247,89.178345 96.073952,97.065346 
	C92.719818,104.352371 89.016510,111.478928 85.675591,118.771721 
	C81.622910,127.618225 77.909622,136.620712 73.826248,145.452499 
	C69.841286,154.071442 65.473297,162.512878 61.457684,171.118195 
	C56.321266,182.125336 51.483047,193.272110 46.307507,204.260361 
	C40.566612,216.448883 34.442757,228.457993 28.767220,240.676025 
	C24.839735,249.130920 21.555376,257.883392 17.676418,266.362366 
	C14.207915,273.944153 10.262057,281.306244 6.648373,288.823700 
	C5.506828,291.198456 4.757356,293.761627 3.914228,296.619293 
	C3.002087,297.000000 2.004175,297.000000 1.003131,297.000000 
	C1.000000,228.312439 1.000000,159.624878 1.360598,90.558868 
	C9.322525,85.332512 17.012072,80.616547 24.505043,75.606575 
	C36.513870,67.577209 48.342953,59.279205 60.342773,51.236137 
	C68.940483,45.473385 77.727119,39.993359 86.368744,34.295101 
	C100.062019,25.265799 113.743019,16.216448 127.333160,7.033430 
	C129.791809,5.372098 131.789505,3.028574 134.000000,0.999998 
	C135.714355,1.000000 137.428711,1.000000 139.571533,1.000002 
z"/>
<path fill="#004070" opacity="1.000000" stroke="none" 
	d="
M184.468658,297.000000 
	C187.652939,289.135132 191.190125,281.213837 194.991257,273.421265 
	C198.811462,265.589630 202.975098,257.926117 206.843704,250.117340 
	C212.911957,237.868469 218.902390,225.580475 224.839493,213.267441 
	C227.997879,206.717270 230.934189,200.060379 234.045883,193.487213 
	C236.876221,187.508377 239.806610,181.576889 242.695724,175.625900 
	C247.375320,165.986877 251.977737,156.309341 256.758728,146.720856 
	C262.479065,135.248413 268.407593,123.879738 274.125305,112.406021 
	C275.740845,109.164108 276.818726,105.657043 278.372681,102.380409 
	C279.093597,100.860222 280.364197,99.600716 281.385620,98.223030 
	C281.923798,98.347313 282.461945,98.471596 283.000122,98.595879 
	C283.000122,164.418152 283.000122,230.240417 283.000061,296.531342 
	C250.312439,297.000000 217.624878,297.000000 184.468658,297.000000 
z"/>
<path fill="#004070" opacity="1.000000" stroke="none" 
	d="
M66.468658,297.000000 
	C69.540649,289.095673 73.069748,281.186157 76.628731,273.290100 
	C77.758469,270.783630 78.946022,268.302551 80.144524,265.827942 
	C86.536835,252.629395 93.061104,239.493118 99.306725,226.225616 
	C105.344139,213.400421 110.992874,200.391602 117.092979,187.597244 
	C117.996330,185.702560 120.423676,183.272095 122.181717,183.242859 
	C139.496872,182.955093 156.819626,183.118637 174.140106,183.185440 
	C174.579819,183.187149 175.018143,183.545975 176.146164,184.040070 
	C174.507935,188.489853 173.136551,193.028793 171.197495,197.310623 
	C167.282516,205.955597 163.160889,214.511490 158.938110,223.011520 
	C153.174728,234.612579 147.155838,246.086990 141.425476,257.703949 
	C139.760559,261.079163 138.912064,264.850372 137.334747,268.276825 
	C133.020142,277.649567 128.516739,286.935394 124.044052,296.627808 
	C104.979103,297.000000 85.958214,297.000000 66.468658,297.000000 
z"/>
<path fill="#000000" opacity="1.000000" stroke="none" 
	d="
M133.531342,0.999998 
	C131.789505,3.028574 129.791809,5.372098 127.333160,7.033430 
	C113.743019,16.216448 100.062019,25.265799 86.368744,34.295101 
	C77.727119,39.993359 68.940483,45.473385 60.342773,51.236137 
	C48.342953,59.279205 36.513870,67.577209 24.505043,75.606575 
	C17.012072,80.616547 9.322525,85.332512 1.360598,90.090210 
	C1.000000,60.391903 1.000000,30.783804 1.000000,1.000000 
	C45.020737,1.000000 89.041710,1.000000 133.531342,0.999998 
z"/>
<path fill="#004070" opacity="1.000000" stroke="none" 
	d="
M1297.000000,192.531342 
	C1287.762695,195.178879 1286.668213,187.196213 1284.278076,181.982254 
	C1280.606323,173.972839 1275.792358,171.340317 1267.841675,170.954758 
	C1264.137085,170.775116 1262.890991,172.047638 1262.938599,175.781158 
	C1263.110962,189.277176 1263.001953,202.776810 1263.000244,216.275070 
	C1262.999268,223.607452 1262.989258,230.939865 1263.003418,238.272232 
	C1263.018311,245.975983 1264.171143,247.706757 1271.722290,248.836670 
	C1275.299194,249.371918 1276.118774,250.919159 1275.985107,254.081085 
	C1275.838867,257.545410 1273.374756,256.963440 1271.328125,256.970001 
	C1257.859985,257.013184 1244.391357,256.992310 1231.088867,256.992310 
	C1229.194702,250.685684 1229.466553,250.188843 1235.123413,248.796326 
	C1242.581055,246.960556 1243.773804,245.990402 1243.883545,237.445450 
	C1244.150757,216.618286 1243.937500,195.785324 1244.024780,174.955139 
	C1244.037842,171.840973 1242.704712,171.115417 1239.834229,170.947495 
	C1229.022461,170.314957 1224.035767,176.286087 1220.105103,187.895370 
	C1219.142090,190.739685 1218.087402,192.608353 1214.960693,192.965500 
	C1209.370239,193.604034 1207.666016,190.406418 1209.080444,182.842361 
	C1210.033813,177.742676 1210.677856,172.544128 1210.912231,167.364990 
	C1211.079224,163.676102 1212.044556,161.925491 1216.090332,161.950195 
	C1242.751099,162.113083 1269.412964,162.109863 1296.537231,162.080399 
	C1297.000000,172.020889 1297.000000,182.041794 1297.000000,192.531342 
z"/>
<path fill="#004070" opacity="1.000000" stroke="none" 
	d="
M355.916870,237.366745 
	C355.968384,208.763351 356.007568,180.598114 355.979340,152.432938 
	C355.971680,144.806686 353.951447,142.697311 346.459381,141.991608 
	C340.577393,141.437546 337.809174,136.988464 340.334656,131.697662 
	C340.776581,130.771790 342.709717,130.095032 343.959076,130.087265 
	C360.624268,129.983673 377.290985,129.959152 393.954956,130.136688 
	C395.282684,130.150818 397.744904,131.862274 397.702332,132.682297 
	C397.555725,135.506317 396.705505,138.349396 395.710785,141.032272 
	C395.480133,141.654404 393.626862,141.869766 392.500793,141.934494 
	C382.983582,142.481506 381.828644,145.194687 381.163727,154.226715 
	C380.492554,163.343567 381.109100,172.549744 380.963623,181.713669 
	C380.911743,184.981720 382.150116,186.062164 385.350861,186.041534 
	C401.516083,185.937286 417.682495,185.951965 433.848022,186.028030 
	C436.764313,186.041748 438.060730,185.109985 438.025848,182.015030 
	C437.909485,171.683548 438.114075,161.347626 437.934174,151.017960 
	C437.824066,144.695816 435.612457,142.804153 428.509735,142.023758 
	C422.621826,141.376831 419.981079,137.263901 422.298401,131.879456 
	C422.706268,130.931702 424.598602,130.107346 425.811279,130.099182 
	C442.642975,129.985916 459.476654,129.952118 476.306122,130.177185 
	C477.539490,130.193680 479.377350,132.155991 479.809601,133.559891 
	C480.414581,135.524933 479.962219,137.815506 479.962219,140.574081 
	C477.052490,141.079346 474.365845,141.666519 471.647827,141.991348 
	C466.832214,142.566849 464.059509,145.284546 464.051636,150.163086 
	C464.004425,179.328293 464.003143,208.493698 464.069885,237.658859 
	C464.082642,243.227295 467.237274,245.857468 473.544006,245.993515 
	C476.738312,246.062424 480.007385,245.587204 480.051361,250.557877 
	C480.106140,256.754089 480.129852,256.985809 473.803131,256.992493 
	C458.303833,257.008850 442.804047,256.929901 427.305603,257.044830 
	C423.744202,257.071228 421.705292,256.475281 421.900879,252.170151 
	C422.073669,248.366287 422.359131,245.906403 427.231720,245.886154 
	C435.115784,245.853439 437.971619,242.622833 437.991089,234.872375 
	C438.017914,224.206268 437.876007,213.537994 438.058685,202.874969 
	C438.121124,199.230682 437.005859,197.896774 433.234894,197.935974 
	C417.403992,198.100616 401.569366,198.102737 385.738525,197.935135 
	C381.935425,197.894882 380.874359,199.288300 380.942596,202.901764 
	C381.128204,212.731125 380.747498,222.574860 381.074158,232.396851 
	C381.416382,242.688110 384.091278,246.266754 393.745911,245.999786 
	C398.477600,245.868958 397.864380,249.141190 398.023621,252.152161 
	C398.190430,255.305847 397.510345,257.086029 393.720428,257.051086 
	C377.222626,256.899109 360.721863,256.900452 344.223999,257.048584 
	C340.389587,257.083008 339.839844,255.194199 339.974915,252.097504 
	C340.107819,249.050308 339.598297,245.842972 344.302948,245.989182 
	C350.148590,246.170837 354.860718,244.546921 355.916870,237.366745 
z"/>
<path fill="#004070" opacity="1.000000" stroke="none" 
	d="
M217.247589,100.245850 
	C209.829926,116.463791 202.628494,132.353806 195.212021,148.142838 
	C194.603638,149.438034 192.540497,150.837311 191.138718,150.852600 
	C173.986252,151.040024 156.831024,150.959427 139.676620,150.996429 
	C136.482681,151.003326 135.259949,149.763809 136.689194,146.721039 
	C140.106598,139.445663 143.598648,132.205399 147.041245,124.941795 
	C150.292252,118.082458 153.590485,111.244179 156.736526,104.336784 
	C160.218857,96.690979 163.456985,88.933411 166.974640,81.304367 
	C171.199753,72.140984 175.585617,63.051315 179.942856,53.949352 
	C183.895599,45.692360 188.002655,37.507420 191.830215,29.193356 
	C193.079025,26.480772 194.592773,26.642925 196.475540,28.038109 
	C202.942215,32.830112 209.385971,37.654583 215.773148,42.551842 
	C221.545807,46.977928 227.100891,51.700577 233.016434,55.921768 
	C235.750839,57.872986 236.318466,59.778698 234.949051,62.597992 
	C229.447281,73.924805 223.939682,85.248833 218.473068,96.592613 
	C217.976089,97.623901 217.756454,98.788849 217.247589,100.245850 
z"/>
<path fill="#004070" opacity="1.000000" stroke="none" 
	d="
M621.909668,200.075760 
	C625.392761,208.864365 628.792542,217.271683 632.192322,225.679001 
	C632.655273,225.635544 633.118164,225.592087 633.581055,225.548630 
	C635.384705,221.051270 637.319519,216.601395 638.968384,212.047989 
	C644.720215,196.163879 650.345032,180.233704 656.133728,164.363190 
	C656.481445,163.409821 657.825256,162.183609 658.725952,162.166718 
	C667.519592,162.001831 676.317505,162.067429 684.958008,162.067429 
	C686.943298,168.968613 686.793274,169.363083 680.427368,171.051270 
	C677.178223,171.912903 675.662109,173.706406 675.966370,177.114655 
	C676.717102,185.522812 677.082397,193.977722 678.164856,202.341080 
	C679.852295,215.378632 682.206787,228.330505 683.852783,241.372421 
	C684.440308,246.028336 686.769714,247.985184 690.928345,247.924515 
	C694.973267,247.865494 694.910767,250.269272 695.015076,253.129318 
	C695.132202,256.341705 693.522949,257.038940 690.720520,257.019745 
	C679.224487,256.940887 667.726562,256.903137 656.231567,257.039459 
	C652.917786,257.078766 651.880310,255.793823 651.947632,252.617676 
	C652.009888,249.682312 652.553101,248.098434 656.046631,247.916855 
	C664.357788,247.484848 665.997620,243.481720 663.657104,235.147324 
	C661.802124,228.541641 661.785645,221.414230 661.011841,214.511871 
	C660.185364,207.140076 659.428162,199.760498 658.511414,191.172165 
	C657.311890,193.086700 656.498047,194.001373 656.105103,195.070724 
	C650.777039,209.570694 645.547729,224.107040 640.201782,238.600372 
	C638.273743,243.827377 636.295715,249.056656 633.909729,254.080322 
	C633.267151,255.433334 631.013000,256.843811 629.556824,256.785095 
	C627.612366,256.706665 624.632812,255.706284 623.989014,254.260025 
	C619.659302,244.533051 615.812256,234.590363 611.844421,224.703323 
	C607.579041,214.074890 603.352417,203.430878 599.108887,192.793655 
	C598.628845,192.838943 598.148804,192.884216 597.668762,192.929504 
	C595.779602,208.330017 593.648193,223.706451 592.113953,239.142242 
	C591.448975,245.832764 593.015320,247.365402 599.811279,247.865891 
	C603.594910,248.144547 603.986877,249.875610 604.059998,252.954956 
	C604.144348,256.502594 602.370422,257.061829 599.428162,257.027100 
	C590.931885,256.926819 582.433594,256.984131 573.936096,257.000305 
	C571.352539,257.005219 568.880310,257.208771 568.959045,253.321106 
	C569.022522,250.188873 569.101624,247.955292 573.318481,247.874146 
	C578.045654,247.783188 580.554199,244.880539 581.054993,239.988266 
	C582.620972,224.690277 584.326538,209.405716 586.118347,194.132416 
	C586.471008,191.126450 587.595825,188.219208 588.114807,185.223190 
	C590.098145,173.773315 588.899353,172.000244 577.773132,169.450119 
	C576.076050,162.548477 576.470703,162.025864 583.483398,162.005981 
	C588.481873,161.991821 593.480469,162.001923 598.479004,162.002304 
	C607.653198,162.003021 607.743530,161.968918 610.832031,170.065308 
	C614.586548,179.907455 618.169250,189.815140 621.909668,200.075760 
z"/>
<path fill="#004070" opacity="1.000000" stroke="none" 
	d="
M929.144775,153.850784 
	C922.526672,140.481277 915.542542,141.811127 903.679199,142.267975 
	C902.737061,142.304260 901.156616,144.989700 901.128052,146.468201 
	C900.909607,157.791046 901.000244,169.119904 900.999207,180.446899 
	C900.997620,198.103714 900.988342,215.760529 901.004456,233.417328 
	C901.012024,241.691422 904.743652,245.588867 912.972351,246.001266 
	C918.436584,246.275101 920.841553,249.905411 918.738586,255.086090 
	C918.379883,255.969727 916.776123,256.872955 915.742065,256.879333 
	C897.919678,256.988770 880.095825,257.016907 862.275024,256.817993 
	C861.183655,256.805817 859.315613,254.835449 859.197144,253.638794 
	C858.925964,250.899353 857.805542,247.333878 862.023376,246.225632 
	C863.283508,245.894547 864.673340,246.075073 866.000793,245.979813 
	C872.760132,245.494690 876.906677,241.596970 876.932617,234.895798 
	C877.047424,205.246201 876.964783,175.595840 877.008423,145.945862 
	C877.012390,143.291473 876.197876,141.842514 873.308167,142.010330 
	C869.175720,142.250305 864.973389,141.989822 860.914673,142.646225 
	C853.440308,143.855011 850.404480,150.199158 847.130310,155.904556 
	C845.335144,159.032776 844.129517,162.542908 842.982971,165.988953 
	C841.464661,170.552185 837.849365,172.525116 832.330444,170.816101 
	C828.054382,169.491974 830.513062,165.920273 830.488647,163.250916 
	C830.479675,162.275208 830.883850,161.302887 830.962463,160.318069 
	C831.667419,151.489212 832.501404,142.665985 832.948975,133.823471 
	C833.135437,130.140930 835.200256,129.988525 837.911377,129.992645 
	C855.401611,130.019180 872.891846,130.000717 890.382080,129.999908 
	C906.539734,129.999176 922.698975,130.127960 938.854004,129.923477 
	C943.449036,129.865326 944.876770,131.613434 945.085266,136.025360 
	C945.534973,145.539749 946.606018,155.023468 947.171448,164.534668 
	C947.294922,166.611862 947.003174,170.030991 945.805603,170.626785 
	C941.942078,172.548904 937.262146,170.645126 935.699646,167.436676 
	C933.551697,163.025925 931.394287,158.619781 929.144775,153.850784 
z"/>
<path fill="#004070" opacity="1.000000" stroke="none" 
	d="
M1008.628723,243.476013 
	C1003.646973,236.729828 998.841431,230.302689 994.043823,223.869614 
	C993.951538,223.745895 994.006836,223.480759 993.902466,223.401962 
	C991.574463,221.644241 989.233704,219.903564 986.895325,218.159622 
	C986.263977,220.657074 985.245483,223.129990 985.085388,225.657303 
	C984.791016,230.301926 984.986755,234.978653 985.005981,239.641876 
	C985.031128,245.727615 986.356445,247.557556 992.315491,247.865555 
	C996.100159,248.061172 997.043518,249.489334 997.079163,253.022141 
	C997.120850,257.150391 994.678040,257.017944 991.865784,257.009521 
	C980.707275,256.976135 969.548462,256.969299 958.390015,257.015228 
	C955.394348,257.027557 952.858765,257.185638 952.895996,252.784103 
	C952.927917,248.999008 954.263428,247.963501 957.864136,247.899078 
	C963.212646,247.803375 965.968628,244.723190 965.978577,239.436035 
	C966.016052,219.450531 966.012329,199.464859 965.982727,179.479324 
	C965.974792,174.145065 963.726929,171.709351 958.471313,170.972443 
	C955.624451,170.573273 952.855286,170.260376 952.951904,166.156967 
	C953.020447,163.247345 953.850708,161.959290 956.950684,161.976990 
	C972.938538,162.068268 988.936157,161.687317 1004.913025,162.115540 
	C1018.570618,162.481583 1029.000488,170.967194 1031.586304,181.374573 
	C1035.239990,196.080170 1028.307495,208.083069 1013.783936,213.227524 
	C1012.889954,213.544159 1012.112671,214.190262 1010.674988,215.042282 
	C1014.852295,220.803360 1018.789368,226.394852 1022.905151,231.851501 
	C1025.554932,235.364532 1028.097778,239.103256 1031.371582,241.957413 
	C1034.322144,244.529846 1037.997925,246.815979 1041.729858,247.793472 
	C1045.472900,248.773956 1044.807373,250.968231 1044.988403,253.351135 
	C1045.211182,256.284851 1043.661987,257.050110 1041.041382,257.011383 
	C1035.046997,256.922760 1029.048218,257.074158 1023.056396,256.922150 
	C1021.471497,256.881927 1019.368469,256.586243 1018.427307,255.560287 
	C1015.007996,251.832886 1011.980774,247.745850 1008.628723,243.476013 
M1010.632568,197.793777 
	C1010.992249,193.390305 1012.419128,188.750122 1011.505005,184.629211 
	C1009.075439,173.676392 997.050842,169.635330 987.209412,171.258972 
	C986.334412,171.403336 985.148926,173.324463 985.131287,174.436615 
	C984.968079,184.727280 985.083862,195.022003 984.991760,205.314407 
	C984.966064,208.182236 986.309692,209.488571 988.901733,208.920944 
	C993.953796,207.814590 999.140198,206.858948 1003.854919,204.859726 
	C1006.420349,203.771851 1008.131714,200.669861 1010.632568,197.793777 
z"/>
<path fill="#004070" opacity="1.000000" stroke="none" 
	d="
M547.753845,252.853973 
	C538.872314,256.520386 530.150391,260.269806 520.791443,258.854370 
	C505.178131,256.493011 491.711304,250.863358 484.220886,234.982574 
	C477.625549,220.999603 477.535431,206.879852 481.526886,192.868301 
	C484.348633,182.962936 490.212402,174.300369 499.376648,168.191071 
	C513.916626,158.498062 529.338623,158.783691 544.794556,164.107330 
	C554.156128,167.331833 560.734314,174.440704 565.471375,183.595520 
	C572.109436,196.424423 572.568481,209.818115 569.452881,223.082764 
	C566.542114,235.474762 559.117249,245.654190 547.753845,252.853973 
M501.786194,224.628220 
	C503.179657,233.727783 508.116272,240.765488 515.806580,245.228683 
	C528.850647,252.798981 544.769531,244.536026 547.975830,229.147751 
	C550.264465,218.163757 550.987732,207.131470 548.917114,196.069336 
	C547.026306,185.967224 542.148193,177.610336 532.906372,172.576004 
	C522.286316,166.790909 506.569214,174.599686 502.946564,187.009445 
	C499.388977,199.196335 499.098816,211.460831 501.786194,224.628220 
z"/>
<path fill="#004070" opacity="1.000000" stroke="none" 
	d="
M715.011475,162.002655 
	C734.832520,162.003952 754.157837,162.134430 773.478943,161.910019 
	C777.957947,161.858002 779.336426,163.317352 779.065308,167.636459 
	C778.742310,172.780594 779.128052,177.967407 778.868530,183.118683 
	C778.803833,184.403046 777.423645,186.679489 776.675903,186.668182 
	C774.620972,186.637009 772.107361,186.166168 770.656738,184.877228 
	C768.916626,183.331131 768.182434,180.697830 766.845825,178.643906 
	C763.480042,173.471817 759.157410,170.301666 752.466980,170.912704 
	C747.510498,171.365402 742.476807,171.118759 737.483765,170.971237 
	C734.417664,170.880661 732.897522,171.744186 732.965759,175.157654 
	C733.132141,183.483505 733.078674,191.815460 732.991760,200.143677 
	C732.963196,202.880478 733.980042,204.104370 736.784607,204.006210 
	C740.111877,203.889725 743.446899,204.009644 746.778442,203.993668 
	C753.989502,203.959091 755.811890,202.854340 758.033997,195.966476 
	C759.122620,192.592072 761.006104,191.667389 764.256531,192.024918 
	C768.057739,192.443008 766.911743,195.306030 766.944397,197.353226 
	C767.069214,205.180603 767.106628,213.014771 766.873962,220.837387 
	C766.832947,222.216629 765.581116,224.421280 764.471619,224.725815 
	C762.246826,225.336411 759.230713,225.800095 758.624084,222.161133 
	C757.193970,213.582321 751.422485,212.577301 744.036865,212.882339 
	C733.018066,213.337402 733.003723,212.999695 733.003540,224.090424 
	C733.003479,229.087952 733.184570,234.093796 732.953430,239.080582 
	C732.733948,243.815704 734.233826,247.120758 739.352722,247.181946 
	C746.921631,247.272415 754.939209,248.397293 761.908203,246.270981 
	C766.407776,244.898117 769.571106,238.651642 772.946167,234.289688 
	C774.713745,232.005157 775.848389,229.636581 779.402527,229.948105 
	C781.862244,230.163712 783.298523,230.877502 782.947388,233.473831 
	C781.972412,240.682251 781.000122,247.895355 779.725098,255.052872 
	C779.579773,255.868851 777.521301,256.890442 776.345703,256.895782 
	C752.524780,257.004852 728.703125,256.943512 704.881958,257.023315 
	C701.705017,257.033936 700.922302,255.596573 700.972534,252.759384 
	C701.021484,249.998581 701.173096,248.066666 704.862366,247.917908 
	C711.794922,247.638367 713.985229,245.133347 713.991333,238.436447 
	C714.009033,218.946136 714.009949,199.455780 713.989380,179.965485 
	C713.983215,174.104980 712.307739,172.285645 706.495789,170.793518 
	C704.602295,170.307388 702.021606,169.450394 701.312500,168.001083 
	C699.565735,164.431030 701.439758,162.119675 705.518982,162.026031 
	C708.515930,161.957214 711.515686,162.006180 715.011475,162.002655 
z"/>
<path fill="#004070" opacity="1.000000" stroke="none" 
	d="
M1051.860596,236.908264 
	C1051.521240,234.368271 1051.044922,232.245651 1051.035522,230.120987 
	C1050.969604,215.133087 1051.009888,200.144745 1050.995972,185.156570 
	C1050.985962,174.415451 1050.377197,173.853607 1040.281860,170.683014 
	C1039.075195,170.304047 1038.162354,167.021240 1038.274048,165.153854 
	C1038.340820,164.038208 1040.645264,162.188873 1041.981812,162.154785 
	C1052.133911,161.895874 1062.295532,162.003632 1072.454102,161.998062 
	C1075.406860,161.996429 1078.359619,161.997803 1081.637939,161.997803 
	C1081.637939,165.238403 1081.637939,167.791992 1081.637939,170.281967 
	C1069.619995,172.737579 1068.990601,171.684174 1068.998657,185.838638 
	C1069.005615,197.995728 1069.060547,210.153214 1068.976440,222.309723 
	C1068.933838,228.467300 1070.612305,234.038254 1073.951294,239.162430 
	C1078.297852,245.832703 1085.152954,247.129837 1092.194824,246.848282 
	C1099.726318,246.547134 1107.156860,244.725143 1111.120972,237.368607 
	C1113.060303,233.769562 1114.704346,229.522354 1114.823486,225.519135 
	C1115.259155,210.876984 1115.011108,196.214050 1114.993652,181.558945 
	C1114.983276,172.875778 1113.906616,171.754883 1105.081299,170.961868 
	C1104.279541,170.889847 1103.486450,170.721664 1102.368652,170.548431 
	C1102.368652,167.831543 1102.368652,165.277374 1102.368652,162.091263 
	C1113.919312,162.091263 1125.191895,161.991226 1136.454346,162.285385 
	C1137.334106,162.308380 1138.807617,165.092575 1138.793945,166.582275 
	C1138.780396,168.042725 1137.455322,170.514648 1136.300537,170.780212 
	C1126.446167,173.046524 1126.002930,173.432419 1126.000854,183.617157 
	C1125.997925,197.939209 1125.924194,212.261780 1126.025757,226.583115 
	C1126.093994,236.187332 1123.201782,244.562424 1115.929688,250.973511 
	C1113.660645,252.973831 1110.615356,254.132675 1107.847168,255.520691 
	C1098.732178,260.091034 1088.706909,260.230225 1079.278076,258.662628 
	C1068.050293,256.795990 1057.219238,252.549973 1052.707642,240.188736 
	C1052.370117,239.263824 1052.192017,238.280731 1051.860596,236.908264 
z"/>
<path fill="#004070" opacity="1.000000" stroke="none" 
	d="
M1145.627197,174.818985 
	C1154.068359,161.513809 1166.848389,159.742325 1180.360840,161.493576 
	C1187.058594,162.361618 1193.539795,165.253159 1199.955444,167.664200 
	C1201.327148,168.179672 1202.737061,170.527069 1202.845093,172.117737 
	C1203.205444,177.424683 1203.193115,182.785370 1202.836914,188.092804 
	C1202.746094,189.444275 1201.048462,191.465836 1199.746826,191.785339 
	C1197.500854,192.336670 1194.558960,192.694611 1194.022339,188.948868 
	C1193.010986,181.890747 1188.634033,176.730469 1183.141846,173.098328 
	C1177.629395,169.452774 1171.040894,169.954376 1165.031616,172.587463 
	C1159.667358,174.937927 1158.661987,179.869263 1159.045166,185.134369 
	C1159.481201,191.125519 1164.155029,193.843796 1168.698975,195.921585 
	C1175.734375,199.138733 1183.165527,201.479248 1190.360718,204.361557 
	C1198.194214,207.499588 1204.954834,212.432236 1207.085571,220.783020 
	C1208.944702,228.069336 1209.587646,235.966583 1205.964844,243.160446 
	C1203.009399,249.029022 1198.489014,253.400726 1192.182007,255.892242 
	C1183.128174,259.468811 1173.767944,260.793640 1164.322510,258.796661 
	C1157.932739,257.445709 1151.345459,255.531570 1145.827515,252.229889 
	C1143.329590,250.735199 1142.775146,245.330338 1142.146606,241.564590 
	C1141.551392,237.998047 1141.978027,234.254776 1142.022705,230.590073 
	C1142.048462,228.473099 1141.625977,226.019928 1145.027588,226.036301 
	C1147.986450,226.050537 1150.975464,225.377426 1152.007202,229.636917 
	C1153.726318,236.734116 1157.835449,242.385513 1163.979980,246.331635 
	C1169.995972,250.195404 1182.824707,249.860352 1187.851929,244.865280 
	C1193.066162,239.684570 1193.440552,231.112488 1187.430420,226.960312 
	C1183.135620,223.993195 1178.238770,221.839157 1173.464844,219.638351 
	C1166.767822,216.551025 1159.399902,214.577988 1153.313110,210.605148 
	C1147.314941,206.690384 1142.109497,201.065399 1143.031494,192.684113 
	C1143.676514,186.818604 1144.615356,180.985397 1145.627197,174.818985 
z"/>
<path fill="#000000" opacity="1.000000" stroke="none" 
	d="
M1010.430420,198.135040 
	C1008.131714,200.669861 1006.420349,203.771851 1003.854919,204.859726 
	C999.140198,206.858948 993.953796,207.814590 988.901733,208.920944 
	C986.309692,209.488571 984.966064,208.182236 984.991760,205.314407 
	C985.083862,195.022003 984.968079,184.727280 985.131287,174.436615 
	C985.148926,173.324463 986.334412,171.403336 987.209412,171.258972 
	C997.050842,169.635330 1009.075439,173.676392 1011.505005,184.629211 
	C1012.419128,188.750122 1010.992249,193.390305 1010.430420,198.135040 
z"/>
<path fill="#000000" opacity="1.000000" stroke="none" 
	d="
M501.609100,224.244736 
	C499.098816,211.460831 499.388977,199.196335 502.946564,187.009445 
	C506.569214,174.599686 522.286316,166.790909 532.906372,172.576004 
	C542.148193,177.610336 547.026306,185.967224 548.917114,196.069336 
	C550.987732,207.131470 550.264465,218.163757 547.975830,229.147751 
	C544.769531,244.536026 528.850647,252.798981 515.806580,245.228683 
	C508.116272,240.765488 503.179657,233.727783 501.609100,224.244736 
z"/>
</svg>