<svg xmlns="http://www.w3.org/2000/svg" width="3840" height="1200" viewBox="0 480 3840 1200"><path fill="white" d="M320 1352V871l326-217-326 698zm453-634l-135 287h133l98-213-96-75zm-299 634h129l126-265H600l-126 265zm505-465l-226 465h226V887zm293 227c-23 0-24 1-24 13v66c0 48 4 49 25 51l13 2c3 3 3 11-1 13-40-1-80-2-120 0-4-2-4-10-1-13l6-1c21-3 25-4 25-52v-167c0-47-4-49-25-51l-10-1c-3-2-3-11 1-13 40 2 78 2 118 0 4 2 4 11 1 13l-8 1c-21 3-25 4-25 51v54c0 13 1 13 24 13h105c23 0 24-1 24-13v-54c0-47-4-49-25-51l-10-1c-3-2-3-11 1-13 40 2 79 2 118 0 4 2 4 11 1 13l-8 1c-21 3-25 4-25 51v167c0 48 4 49 25 52l10 1c3 3 3 11-1 13-40-2-80-2-120 0-4-2-4-10-1-13l10-1c21-3 25-4 25-52v-66c0-12-1-13-24-13h-105zm357-73c54 0 77 60 77 111 0 68-31 97-70 97-58 0-78-64-78-111 0-72 37-97 71-97zm-117 107c0 60 44 114 121 114 69 0 119-50 119-117 0-70-49-118-119-118-71 0-121 51-121 121zm405 49l18-35 32-65c11-22 22-42 28-65h64c4 1 4 8 1 10l-11 2c-15 2-18 8-18 26 0 50 1 101 3 151 1 23 5 25 16 27l10 2c3 1 3 8-1 10-29-2-58-1-87 0-3-1-4-8-1-10l9-2c14-2 15-5 15-28v-139h-1l-20 42-29 60c-12 24-29 61-35 77h-9c-6-18-20-52-28-69l-30-65-20-46h-1l-2 57-1 79c0 22 0 28 15 30l11 2c2 2 2 8 0 10h-72c-3-2-3-8-1-10l6-1c16-2 19-7 21-28 3-21 3-43 5-79l3-72c0-16-5-23-18-25l-12-2c-2-2-2-9 1-10 22 1 46 2 68 0 1 20 10 38 19 56l37 78 16 31zm326-115c-1 3-8 4-11 1-6-20-11-28-21-31-14-4-35-3-50-3s-15 1-15 20v59c0 9 1 9 8 9h16c30 0 36 0 38-15l2-12c3-2 9-2 11 0v70c-2 2-8 2-11 0l-2-14c-2-14-8-15-38-15h-16c-8 0-8 1-8 9v44c0 17 1 30 6 35 4 5 10 7 39 7 43 1 51-9 62-37 3-2 9-1 11 2-2 14-10 40-14 49l-78-1c-32 0-64-1-96 1-3-1-3-8-1-10l13-1c16-2 19-3 19-39v-129c0-36-3-37-19-39l-5-1c-2-2-2-8 1-10 39 0 116 4 154 1l6 47zm263-84c0-19 0-20-12-20h-25c-41 0-53 5-70 41-3 3-13 1-14-3 8-24 14-52 18-68 1-2 8-2 9 0 2 11 8 12 39 12h183c22 0 29-1 34-12 3-2 9-3 11 0-4 18-8 57-7 71-2 4-10 4-14 1-6-35-14-43-62-43h-26c-12 0-12 1-12 20v194c0 48 4 49 25 51l16 2c3 3 3 11-1 13-46-2-90-1-135 0-4-2-4-11-1-13l19-2c21-2 25-3 25-51V997zm313 97c0 32-16 48-49 48-16 0-16-1-16-12v-71c0-16 0-17 18-17 29 0 47 23 47 51zm86 155c-4 0-14-2-23-10-16-13-33-42-60-88-1-2-2-5 0-6 17-7 41-22 41-54 0-24-13-41-30-50-31-17-107-12-143-8-3 2-3 7 0 9l9 1c16 2 16 6 16 38v124c0 36-3 37-19 39l-7 1c-3 2-2 8 1 10 30-1 61-2 91 0 3-1 3-8 1-10l-8-1c-16-2-19-3-19-39v-43c0-7 0-7 11-7s15 1 21 12c25 41 41 91 98 91 12 0 18-1 23-2 1-2 1-5-1-7zm150-219h74c3 2 3 7 1 9-7 2-19 3-22 10-5 10-5 40-5 67v41c0 61-22 104-89 104-66 0-92-29-92-94v-86c0-36-3-37-19-40l-6-1c-2-2-2-8 1-9h89c3 1 3 7 1 9l-7 1c-16 2-19 3-19 39v78c0 47 14 86 61 86 45 0 63-34 63-85v-43c0-25 0-57-6-67-5-8-15-8-24-10-3-2-3-8 1-9zm226 49c-2 3-8 3-11 1-5-18-17-40-46-40-27 0-39 18-39 36 0 14 10 30 32 41 33 18 68 34 68 78 0 39-30 66-79 66-31 0-49-10-56-14-6-7-10-31-10-52 2-3 8-4 11-1 6 17 24 54 58 54 26 0 40-16 40-36 0-19-9-35-35-49-29-17-63-35-63-74 0-34 25-62 75-62 18 0 31 4 47 7 4 8 7 30 7 46zm109-19c0-14 0-15-9-15h-19c-31 0-40 4-53 31-2 2-10 1-11-2 6-18 11-39 13-51 1-2 6-2 7 0 2 8 6 9 30 9h139c17 0 22-1 26-9 3-1 6-2 9 0-3 14-6 43-5 54-2 3-8 3-11 1-4-27-11-33-47-33h-19c-9 0-9 1-9 15v147c0 36 3 37 19 39l12 1c2 2 2 8-1 10h-103c-3-1-3-8-1-10l14-2c16-1 19-2 19-38v-147z"/></svg>