<?xml version="1.0" encoding="UTF-8"?>
<svg xmlns="http://www.w3.org/2000/svg" xmlns:xlink="http://www.w3.org/1999/xlink" version="1.1" viewBox="0 0 57.3 60.8">
  <defs>
    <style>
      .cls-1, .cls-2, .cls-3, .cls-4 {
        fill: none;
      }

      .cls-2 {
        stroke: #fff;
        stroke-width: 0px;
      }

      .cls-2, .cls-3, .cls-4 {
        stroke-miterlimit: 10;
      }

      .cls-5 {
        fill: #1d1d1b;
      }

      .cls-3 {
        stroke-width: 2.9px;
      }

      .cls-3, .cls-4 {
        stroke: #1d1d1b;
      }

      .cls-4 {
        stroke-width: 3.6px;
      }

      .cls-6 {
        clip-path: url(#clippath);
      }
    </style>
    <clipPath id="clippath">
      <rect class="cls-1" x="10.3" y="8.4" width="39" height="40.1"/>
    </clipPath>
  </defs>
  <!-- Generator: Adobe Illustrator 28.7.1, SVG Export Plug-In . SVG Version: 1.2.0 Build 142)  -->
  <g>
    <g id="Layer_1">
      <g class="cls-6">
        <path class="cls-3" d="M21.7,9.9h16.1c5.5,0,10,4.5,10,10v17.2c0,5.5-4.5,10-10,10h-16.1c-5.5,0-10-4.5-10-10v-17.2c0-5.5,4.5-10,10-10Z"/>
        <path class="cls-4" d="M38.6,28.4c-.1,4.9-4,8.9-8.9,8.9s-8.9-4-8.9-8.9,4-9,8.9-8.9c6,.2,9,4,8.9,8.9Z"/>
        <path class="cls-5" d="M43.2,17.5c0,1.4-1.1,2.5-2.5,2.5s-2.5-1.1-2.5-2.5,1.1-2.5,2.5-2.5,2.5,1.1,2.5,2.5"/>
        <circle class="cls-2" cx="40.7" cy="17.5" r="2.5"/>
      </g>
    </g>
  </g>
</svg>