<?xml version="1.0" encoding="UTF-8"?>
<svg xmlns="http://www.w3.org/2000/svg" version="1.1" viewBox="0 0 512 512">
  <defs>
    <style>
      .cls-1 {
        fill: #fff;
      }
    </style>
  </defs>
  <!-- Generator: Adobe Illustrator 28.7.1, SVG Export Plug-In . SVG Version: 1.2.0 Build 142)  -->
  <g>
    <g id="Layer_1">
      <g id="_x31_0_Tutoring">
        <g>
          <path class="cls-1" d="M396.5,415.7v-196.3c-3.2-.3-6.4-.9-9.6-1.5v197.8h8.6c.3,0,.7,0,1,0Z"/>
          <path class="cls-1" d="M301.4,189.7h-27.7c0,3.1-.3,6.3-.9,9.6h23.6l5-9.6Z"/>
          <path class="cls-1" d="M27.4,210.1v205.5h9.6v-205.5c0-5.9,4.8-10.7,10.7-10.7h103.4c-.6-3.3-.9-6.5-.9-9.6H47.7c-11.2,0-20.3,9.1-20.3,20.3Z"/>
          <path class="cls-1" d="M395.5,425.2h-98.9c-9.8,0-18.3,6.9-20.4,16.5-1.1,5.1-5.7,8.9-11,8.9h-106.6c-5.2,0-9.9-3.7-11-8.9-2-9.6-10.6-16.5-20.4-16.5H28.4c-7.7,0-14.9,3.5-19.6,9.5-4.8,6-6.5,13.8-4.8,21.2l6,25.9c2.7,11.4,12.7,19.4,24.4,19.4h355.1c11.7,0,21.7-8,24.4-19.4l6.1-25.9c1.7-7.5,0-15.2-4.8-21.2-4.8-6-11.9-9.5-19.6-9.5ZM337.9,468h-3.9c-2.7,0-4.8-2.2-4.8-4.8s2.1-4.8,4.8-4.8h3.9c2.7,0,4.8,2.2,4.8,4.8s-2.1,4.8-4.8,4.8ZM362.8,468h-3.8c-2.7,0-4.8-2.2-4.8-4.8s2.1-4.8,4.8-4.8h3.8c2.7,0,4.8,2.2,4.8,4.8s-2.1,4.8-4.8,4.8ZM387.8,468h-3.8c-2.7,0-4.8-2.2-4.8-4.8s2.1-4.8,4.8-4.8h3.8c2.7,0,4.8,2.2,4.8,4.8s-2.1,4.8-4.8,4.8Z"/>
          <path class="cls-1" d="M258.2,277.8h-92.5c-37,0-67.1,30.1-67.1,67.1v30.6h-18.8c-2.6,0-4.8,2.2-4.8,4.8s2.2,4.8,4.8,4.8h264.3c2.6,0,4.8-2.2,4.8-4.8s-2.2-4.8-4.8-4.8h-18.8v-30.6c0-37-30.1-67.1-67.1-67.1ZM215.6,338.5c-1,2.1-2.9,2.3-3.7,2.3s-2.6-.2-3.6-2.3l-25.6-51h58.4l-25.5,51Z"/>
          <path class="cls-1" d="M159.8,188.4c0,27.4,22.4,69.5,52.2,69.5s52.2-42.2,52.2-69.5-23.4-52.2-52.2-52.2-52.2,23.4-52.2,52.2Z"/>
          <path class="cls-1" d="M508.4,103.9c-3.3-50-43.5-89.9-93.5-92.9-27.9-1.6-54.3,7.9-74.5,27-20.2,19.1-31.4,44.9-31.4,72.7s5.5,38.1,16.1,54.2l-22.5,43.6c-2,3.8-1.3,8.3,1.8,11.3,1.9,1.9,4.3,2.9,6.8,2.9s3.1-.3,4.5-1.1l45.3-23.3c14.6,8,31.1,12.2,47.8,12.2,27.5,0,54.1-11.5,72.9-31.6,17.5-18.7,27-42.7,27-68.2,0-2.3,0-4.5-.2-6.8ZM410.4,139.8h-29.6c-2.7,0-4.8-2.2-4.8-4.8s2.1-4.8,4.8-4.8h29.6c2.7,0,4.8,2.2,4.8,4.8s-2.1,4.8-4.8,4.8ZM451.3,103.3h-70.4c-2.7,0-4.8-2.2-4.8-4.8s2.1-4.8,4.8-4.8h70.4c2.7,0,4.8,2.2,4.8,4.8s-2.1,4.8-4.8,4.8Z"/>
          <path class="cls-1" d="M29.5,97.4c18.4-18.4,42.9-28.5,69-28.5s50.6,10.1,69,28.5c.9.9,2.2,1.4,3.4,1.4s2.5-.5,3.4-1.4c1.9-1.9,1.9-4.9,0-6.8-20.2-20.2-47.1-31.4-75.8-31.4s-55.6,11.1-75.8,31.4c-1.9,1.9-1.9,4.9,0,6.8,1.9,1.9,4.9,1.9,6.8,0Z"/>
          <path class="cls-1" d="M142.4,127.4c1.2,0,2.5-.5,3.4-1.4,1.9-1.9,1.9-4.9,0-6.8-26-26-68.4-26-94.4,0-1.9,1.9-1.9,4.9,0,6.8,1.9,1.9,4.9,1.9,6.8,0,22.3-22.3,58.5-22.3,80.8,0,.9.9,2.2,1.4,3.4,1.4Z"/>
          <path class="cls-1" d="M80,147.8c-1.9,1.9-1.9,4.9,0,6.8,1.9,1.9,4.9,1.9,6.8,0,6.5-6.5,17.1-6.5,23.6,0,.9.9,2.2,1.4,3.4,1.4s2.5-.5,3.4-1.4c1.9-1.9,1.9-4.9,0-6.8-10.2-10.2-26.9-10.2-37.1,0Z"/>
        </g>
      </g>
    </g>
  </g>
</svg>