<?xml version="1.0" encoding="UTF-8"?>
<svg xmlns="http://www.w3.org/2000/svg" xmlns:xlink="http://www.w3.org/1999/xlink" version="1.1" viewBox="0 0 155.3 129.8">
  <defs>
    <style>
      .cls-1 {
        fill: none;
      }

      .cls-2 {
        fill: #64a3fd;
      }

      .cls-3 {
        clip-path: url(#clippath);
      }
    </style>
    <clipPath id="clippath">
      <rect class="cls-1" x="66.5" y="51.2" width="20.6" height="27.6"/>
    </clipPath>
  </defs>
  <!-- Generator: Adobe Illustrator 28.7.1, SVG Export Plug-In . SVG Version: 1.2.0 Build 142)  -->
  <g>
    <g id="Layer_1">
      <g class="cls-3">
        <path class="cls-2" d="M76.8,73c-.9,0-1.8-.3-2.6-1.3-.2-.3-.2-.7.1-.9.3-.2.7-.2.9.1,1.1,1.4,2.6.6,2.7.6,0,0,0,0,0,0,0,0,.5-.3.5-1,0-.8-.8-1-.8-1s-.9-.3-1.8-.6c-1.4-.4-1.7-1.4-1.6-2.1,0-.5.2-2.2,2.7-2.2h0c1.7,0,2.5,1.3,2.7,1.9,0,.3,0,.7-.4.8-.3,0-.7,0-.8-.4,0-.1-.3-1-1.5-1,0,0,0,0,0,0-1,0-1.5.3-1.5.9,0,.4.1.7.8.9.9.3,1.8.6,1.8.6.6.2,1.6.8,1.7,2.1.1,1.3-.7,2-1.2,2.2-.4.2-1,.4-1.6.4"/>
        <path class="cls-2" d="M76.9,65.9c-.3,0-.6-.3-.6-.6v-1.5c0-.3.3-.6.6-.6s.6.3.6.6v1.5c0,.3-.3.6-.6.6"/>
        <path class="cls-2" d="M76.9,74.5c-.3,0-.6-.3-.6-.6v-1.5c0-.3.3-.6.6-.6s.6.3.6.6v1.5c0,.3-.3.6-.6.6"/>
        <path class="cls-2" d="M74,60.1c-3.6,2.3-6.2,8.5-6.2,12.6s3.3,4.8,9.1,4.8,9.1-.2,9.1-4.8-2.7-10.3-6.2-12.6h-5.7ZM76.8,78.8c-5.3,0-10.3,0-10.3-6.1s2.9-11.2,7-13.8c0,0,.2,0,.3,0h6c.1,0,.2,0,.3,0,4.1,2.5,7,9.3,7,13.8s-5,6.1-10.3,6.1"/>
        <path class="cls-2" d="M73.7,57.5c-.4,0-.6.3-.6.6s.3.6.6.6h6.2c.4,0,.6-.3.6-.6s-.3-.6-.6-.6h-6.2ZM79.9,60.1h-6.2c-1,0-1.9-.9-1.9-1.9s.8-1.9,1.9-1.9h6.2c1,0,1.9.9,1.9,1.9s-.8,1.9-1.9,1.9"/>
        <path class="cls-2" d="M79.6,57.5c-.1,0-.2,0-.3,0-.3-.2-.4-.5-.2-.8,0,0,.8-1.4,2.3-3.7,0-.1.1-.2.1-.3-.5-.4-3.6,0-5,.6-1.2.5-2.1,0-2.8-.4-.5-.3-.8-.4-1.2-.4.2.7,1.3,2.5,2.6,4.1.2.3.2.7,0,.9-.3.2-.7.2-.9,0-1.3-1.5-3.3-4.3-2.9-5.4.1-.3.4-.6.8-.6.9-.2,1.6.3,2.2.6.7.4,1.1.6,1.7.3,1-.4,5.4-1.6,6.5-.3.2.3.5.9-.1,1.8-1.5,2.2-2.2,3.6-2.2,3.6-.1.2-.3.3-.5.3"/>
      </g>
    </g>
  </g>
</svg>