<?xml version="1.0" encoding="UTF-8"?>
<svg xmlns="http://www.w3.org/2000/svg" xmlns:xlink="http://www.w3.org/1999/xlink" version="1.1" viewBox="0 0 155.3 129.8">
  <defs>
    <style>
      .cls-1 {
        fill: none;
      }

      .cls-2 {
        fill: #3185fc;
      }

      .cls-3 {
        clip-path: url(#clippath);
      }
    </style>
    <clipPath id="clippath">
      <rect class="cls-1" x="64.7" y="48.1" width="29.6" height="29.2"/>
    </clipPath>
  </defs>
  <!-- Generator: Adobe Illustrator 28.7.1, SVG Export Plug-In . SVG Version: 1.2.0 Build 142)  -->
  <g>
    <g id="Layer_1">
      <g class="cls-3">
        <path class="cls-2" d="M82.3,76.2h6.9v-15.3c0-.3.2-.5.5-.5h2.6l-12.9-11.2-6.2,5.3c-.2.1-.4.2-.5,0-.2,0-.3-.3-.3-.5v-2.6h-2.2v5.4c0,.2,0,.3-.2.4l-3.5,3.1h2.6c.3,0,.5.2.5.5v15.3h6.9v-8.1c0-.3.2-.5.5-.5h4.6c.3,0,.5.2.5.5v8.1ZM89.7,77.3h-7.9c-.3,0-.5-.2-.5-.5v-8.1h-3.6v8.1c0,.3-.2.5-.5.5h-7.9c-.3,0-.5-.2-.5-.5v-15.3h-3.5c-.2,0-.4-.1-.5-.3,0-.2,0-.4.1-.6l4.4-3.8v-5.7c0-.3.2-.5.5-.5h3.2c.3,0,.5.2.5.5v2l5.7-4.9c.2-.2.5-.2.7,0l14.3,12.4c.2.1.2.4.1.6,0,.2-.3.3-.5.3h-3.5v15.3c0,.3-.2.5-.5.5"/>
      </g>
    </g>
  </g>
</svg>