<?xml version="1.0" encoding="UTF-8"?>
<svg xmlns="http://www.w3.org/2000/svg" xmlns:xlink="http://www.w3.org/1999/xlink" version="1.1" viewBox="0 0 155.3 129.8">
  <defs>
    <style>
      .cls-1 {
        fill: none;
      }

      .cls-2 {
        fill: #64a3fd;
      }

      .cls-3 {
        clip-path: url(#clippath);
      }
    </style>
    <clipPath id="clippath">
      <rect class="cls-1" x="69" y="51.1" width="16.2" height="27.1"/>
    </clipPath>
  </defs>
  <!-- Generator: Adobe Illustrator 28.7.1, SVG Export Plug-In . SVG Version: 1.2.0 Build 142)  -->
  <g>
    <g id="Layer_1">
      <g class="cls-3">
        <path class="cls-2" d="M77.1,69.6c-1,0-2.1-.4-3-1.6-.1-.2-.1-.5,0-.6.2-.1.5-.1.6,0,1.6,2.1,3.7.9,3.8.9,0,0,0,0,0,0,0,0,.9-.4.8-1.6-.1-1.2-1.2-1.5-1.3-1.6,0,0-1.2-.4-2.3-.7-1.2-.4-1.8-1.2-1.8-2.4,0-.6.3-2.4,3.2-2.4,2,0,2.9,1.4,3.1,2.2,0,.2,0,.5-.3.5-.2,0-.5,0-.5-.3,0,0-.5-1.5-2.3-1.5-1.1,0-2.3.2-2.3,1.5,0,.8.4,1.2,1.2,1.5,1.2.3,2.3.7,2.3.7,0,0,1.7.5,1.9,2.3.1,1.4-.8,2.2-1.3,2.5-.4.2-1.1.4-1.9.4"/>
        <path class="cls-2" d="M77.2,60.6c-.2,0-.4-.2-.4-.4v-1.9c0-.2.2-.4.4-.4s.4.2.4.4v1.9c0,.2-.2.4-.4.4"/>
        <path class="cls-2" d="M77.2,71.6c-.2,0-.4-.2-.4-.4v-1.9c0-.2.2-.4.4-.4s.4.2.4.4v1.9c0,.2-.2.4-.4.4"/>
        <path class="cls-2" d="M71.6,52c-.9,0-1.7.8-1.7,1.7v21.9c0,1,.8,1.7,1.7,1.7h11.1c.9,0,1.7-.8,1.7-1.7v-21.9c0-1-.8-1.7-1.7-1.7h-11.1ZM82.7,78.3h-11.1c-1.4,0-2.6-1.2-2.6-2.6v-21.9c0-1.4,1.2-2.6,2.6-2.6h11.1c1.4,0,2.6,1.2,2.6,2.6v21.9c0,1.4-1.2,2.6-2.6,2.6"/>
        <path class="cls-2" d="M69.9,74.1h14.5v-18.9h-14.5v18.9ZM84.8,75h-15.4c-.2,0-.4-.2-.4-.4v-19.7c0-.2.2-.4.4-.4h15.4c.2,0,.4.2.4.4v19.7c0,.2-.2.4-.4.4"/>
      </g>
    </g>
  </g>
</svg>