<?xml version="1.0" encoding="UTF-8"?>
<svg xmlns="http://www.w3.org/2000/svg" xmlns:xlink="http://www.w3.org/1999/xlink" version="1.1" viewBox="0 0 155.3 129.8">
  <defs>
    <style>
      .cls-1 {
        fill: none;
      }

      .cls-2 {
        fill: #64a3fd;
      }

      .cls-3 {
        clip-path: url(#clippath);
      }
    </style>
    <clipPath id="clippath">
      <rect class="cls-1" x="62.6" y="50.8" width="31.5" height="28.3"/>
    </clipPath>
  </defs>
  <!-- Generator: Adobe Illustrator 28.7.1, SVG Export Plug-In . SVG Version: 1.2.0 Build 142)  -->
  <g>
    <g id="Layer_1">
      <g class="cls-3">
        <path class="cls-2" d="M65.1,58.7h26.5l-13.3-6.9-13.3,6.9ZM93.6,59.7h-30.5c-.2,0-.4-.2-.5-.4,0-.2,0-.4.2-.6l15.3-7.9c.1,0,.3,0,.4,0l15.3,7.9c.2.1.3.3.2.6,0,.2-.2.4-.5.4"/>
        <path class="cls-2" d="M93.6,79.1h-30.5c-.3,0-.5-.2-.5-.5s.2-.5.5-.5h30.5c.3,0,.5.2.5.5s-.2.5-.5.5"/>
        <path class="cls-2" d="M91.9,76.9h-27.2c-.3,0-.5-.2-.5-.5s.2-.5.5-.5h27.2c.3,0,.5.2.5.5s-.2.5-.5.5"/>
        <path class="cls-2" d="M67.8,75.9h1.7v-16.2h-1.7v16.2ZM70,76.9h-2.7c-.3,0-.5-.2-.5-.5v-17.2c0-.3.2-.5.5-.5h2.7c.3,0,.5.2.5.5v17.2c0,.3-.2.5-.5.5"/>
        <path class="cls-2" d="M77.4,75.9h1.7v-16.2h-1.7v16.2ZM79.7,76.9h-2.7c-.3,0-.5-.2-.5-.5v-17.2c0-.3.2-.5.5-.5h2.7c.3,0,.5.2.5.5v17.2c0,.3-.2.5-.5.5"/>
        <path class="cls-2" d="M87.1,75.9h1.7v-16.2h-1.7v16.2ZM89.3,76.9h-2.7c-.3,0-.5-.2-.5-.5v-17.2c0-.3.2-.5.5-.5h2.7c.3,0,.5.2.5.5v17.2c0,.3-.2.5-.5.5"/>
        <path class="cls-2" d="M67.8,60.7h1.7v-1.1h-1.7v1.1ZM70,61.7h-2.7c-.3,0-.5-.2-.5-.5v-2.1c0-.3.2-.5.5-.5h2.7c.3,0,.5.2.5.5v2.1c0,.3-.2.5-.5.5"/>
        <path class="cls-2" d="M77.4,60.7h1.7v-1.1h-1.7v1.1ZM79.7,61.7h-2.7c-.3,0-.5-.2-.5-.5v-2.1c0-.3.2-.5.5-.5h2.7c.3,0,.5.2.5.5v2.1c0,.3-.2.5-.5.5"/>
        <path class="cls-2" d="M87.1,60.7h1.7v-1.1h-1.7v1.1ZM89.3,61.7h-2.7c-.3,0-.5-.2-.5-.5v-2.1c0-.3.2-.5.5-.5h2.7c.3,0,.5.2.5.5v2.1c0,.3-.2.5-.5.5"/>
      </g>
    </g>
  </g>
</svg>