<?xml version="1.0" encoding="UTF-8"?>
<svg xmlns="http://www.w3.org/2000/svg" xmlns:xlink="http://www.w3.org/1999/xlink" version="1.1" viewBox="0 0 155.3 129.8">
  <defs>
    <style>
      .cls-1 {
        fill: none;
      }

      .cls-2 {
        fill: #64a3fd;
      }

      .cls-3 {
        clip-path: url(#clippath);
      }
    </style>
    <clipPath id="clippath">
      <rect class="cls-1" x="63.7" y="49.3" width="31.5" height="27.3"/>
    </clipPath>
  </defs>
  <!-- Generator: Adobe Illustrator 28.7.1, SVG Export Plug-In . SVG Version: 1.2.0 Build 142)  -->
  <g>
    <g id="Layer_1">
      <g class="cls-3">
        <path class="cls-2" d="M89.2,75.1c-.3,0-.5-.2-.5-.5v-7.5c0-.3.2-.5.5-.5s.5.2.5.5v7.5c0,.3-.2.5-.5.5"/>
        <path class="cls-2" d="M86.1,65.1c-.3,0-.5-.2-.5-.5v-4.6l-1.2.5c-1,.4-2,.8-3,1l-1.3.3c-.3,0-.5-.1-.6-.4,0-.3.1-.5.4-.6l1.3-.3c1-.2,1.9-.5,2.8-.9l1.8-.8c.1,0,.3,0,.5,0,.1,0,.2.2.2.4v5.4c0,.3-.2.5-.5.5"/>
        <path class="cls-2" d="M90.7,76.6c-.5,0-1-.2-1.4-.5,0,0-.1-.1-.2-.2,0,0-.1.1-.2.2-.4.4-1,.6-1.6.5-1,0-1.8-1-1.8-2.1v-9.9c0-.3.2-.5.5-.5s.5.2.5.5v9.9c0,.6.4,1.1,1,1.1.3,0,.6,0,.8-.3.2-.2.3-.5.3-.8s.2-.5.5-.5.5.2.5.5.1.6.3.8c.2.2.5.3.8.3.5,0,1-.5,1-1.1v-9.9c0-.3.2-.5.5-.5s.5.2.5.5c0,.4.3.8.7.8.2,0,.4,0,.6-.2.2-.1.2-.3.2-.6v-6.5c0-1.1-.9-2-2-2h-6.2c-.4,0-.8.2-1.1.4l-2.7,2.1s0,0-.2,0l-2.4.8c-.3,0-.5,0-.6-.3,0-.3,0-.5.3-.6l2.3-.8,2.6-2c.5-.4,1.1-.6,1.7-.6h6.2c1.6,0,2.9,1.3,2.9,3v6.5c0,.5-.2.9-.6,1.3-.4.3-.8.5-1.3.4-.2,0-.4,0-.6-.2v8.3c0,1.1-.8,2-1.8,2.1,0,0-.1,0-.2,0"/>
        <path class="cls-2" d="M92.3,56.2h-6.2c-.3,0-.5-.2-.5-.5s.2-.5.5-.5h6.2c.3,0,.5.2.5.5s-.2.5-.5.5"/>
        <path class="cls-2" d="M92.3,65.1c-.3,0-.5-.2-.5-.5v-5.4c0-.3.2-.5.5-.5s.5.2.5.5v5.4c0,.3-.2.5-.5.5"/>
        <path class="cls-2" d="M89.2,50.3c-.9,0-1.6.7-1.6,1.6s.7,1.6,1.6,1.6,1.6-.7,1.6-1.6-.7-1.6-1.6-1.6M89.2,54.5c-1.4,0-2.6-1.2-2.6-2.6s1.1-2.6,2.6-2.6,2.6,1.2,2.6,2.6-1.1,2.6-2.6,2.6"/>
        <path class="cls-2" d="M69.7,75.1c-.3,0-.5-.2-.5-.5v-7.5c0-.3.2-.5.5-.5s.5.2.5.5v7.5c0,.3-.2.5-.5.5"/>
        <path class="cls-2" d="M67.1,64.6v9.9c0,.6.4,1.1,1,1.1.3,0,.6,0,.8-.3.2-.2.3-.5.3-.8s.2-.5.5-.5.5.2.5.5.1.6.3.8c.2.2.5.3.8.3.5,0,1-.5,1-1.1v-9.9s0,0,0,0v-5.4c0-.2,0-.3.2-.4.1,0,.3-.1.5,0l1.8.8c.9.4,1.9.7,2.8.9l1.6.3c.3,0,.6-.1.7-.4,0-.2,0-.3,0-.5,0-.2-.2-.3-.4-.3l-2.8-.9c0,0-.1,0-.2,0l-2.7-2.1c-.3-.3-.7-.4-1.1-.4h-6.2c-1.1,0-2,.9-2,2v6.5c0,.2,0,.4.2.6.2.1.4.2.6.2.4,0,.7-.4.7-.8s.2-.5.5-.5.5.2.5.5M68.2,76.6c0,0-.1,0-.2,0-1,0-1.8-1-1.8-2.1v-8.3c-.2,0-.4.2-.6.2-.5,0-1-.1-1.3-.4-.4-.3-.6-.8-.6-1.3v-6.5c0-1.6,1.3-3,2.9-3h6.2c.6,0,1.2.2,1.7.6l2.6,2,2.8.9c.4.1.8.4.9.8.2.4.2.9,0,1.3-.3.7-1,1.1-1.8,1l-1.6-.3c-1.1-.2-2.1-.5-3-1l-1.2-.5v4.6s0,0,0,0v9.9c0,1.1-.8,2-1.8,2.1-.6,0-1.1-.1-1.6-.5,0,0-.1-.1-.2-.2,0,0-.1.1-.2.2-.4.3-.9.5-1.4.5"/>
        <path class="cls-2" d="M72.8,56.2h-6.2c-.3,0-.5-.2-.5-.5s.2-.5.5-.5h6.2c.3,0,.5.2.5.5s-.2.5-.5.5"/>
        <path class="cls-2" d="M66.6,65.1c-.3,0-.5-.2-.5-.5v-5.4c0-.3.2-.5.5-.5s.5.2.5.5v5.4c0,.3-.2.5-.5.5"/>
        <path class="cls-2" d="M69.7,50.3c-.9,0-1.6.7-1.6,1.6s.7,1.6,1.6,1.6,1.6-.7,1.6-1.6-.7-1.6-1.6-1.6M69.7,54.5c-1.4,0-2.6-1.2-2.6-2.6s1.1-2.6,2.6-2.6,2.6,1.2,2.6,2.6-1.1,2.6-2.6,2.6"/>
      </g>
    </g>
  </g>
</svg>