<?xml version="1.0" encoding="UTF-8"?>
<svg xmlns="http://www.w3.org/2000/svg" version="1.1" viewBox="0 0 48 48">
  <!-- Generator: Adobe Illustrator 28.7.1, SVG Export Plug-In . SVG Version: 1.2.0 Build 142)  -->
  <g>
    <g id="Layer_1">
      <g id="_x31_9_x5F_Credit_x5F_Score">
        <path d="M23,8v-1c0-.6.4-1,1-1s1,.4,1,1v1c0,.6-.4,1-1,1s-1-.4-1-1ZM17.6,10c.2.3.5.5.9.5s.3,0,.5-.1c.5-.3.6-.9.4-1.4l-.5-.9c-.3-.5-.9-.6-1.4-.4-.5.3-.6.9-.4,1.4l.5.9ZM15.3,14c.3-.5.1-1.1-.4-1.4l-.9-.5c-.5-.3-1.1-.1-1.4.4-.3.5-.1,1.1.4,1.4l.9.5c.2,0,.3.1.5.1.3,0,.7-.2.9-.5ZM29,10.3c.2,0,.3.1.5.1.3,0,.7-.2.9-.5l.5-.9c.3-.5.1-1.1-.4-1.4-.5-.3-1.1-.1-1.4.4l-.5.9c-.3.5-.1,1.1.4,1.4ZM33.5,14.5c.2,0,.3,0,.5-.1l.9-.5c.5-.3.6-.9.4-1.4-.3-.5-.9-.6-1.4-.4l-.9.5c-.5.3-.6.9-.4,1.4.2.3.5.5.9.5ZM24,21c1.1,0,2-.9,2-2s-.1-.7-.3-1l2.1-3.7c.3-.5.1-1.1-.4-1.4s-1.1-.1-1.4.4l-2.1,3.7c-1.1,0-2,.9-2,2s.9,2,2,2ZM43,21v18c0,1.7-1.3,3-3,3H8c-1.7,0-3-1.3-3-3v-18c0-1.7,1.3-3,3-3h0c.5-8.4,7.5-15,15.9-15s15.4,6.6,15.9,15h0c1.7,0,3,1.3,3,3ZM41,21c0-.6-.4-1-1-1h-5c-.6,0-1-.4-1-1s.4-1,1-1h3c-.5-7.3-6.6-13-14-13s-13.4,5.7-14,13h3c.6,0,1,.4,1,1s-.4,1-1,1h-5c-.6,0-1,.4-1,1v18c0,.6.4,1,1,1h32c.6,0,1-.4,1-1v-18ZM9,32v-4c0-.6.4-1,1-1h5c.3,0,.5.1.7.3l2,2c.2.2.3.4.3.7v2c0,.6-.4,1-1,1h-7c-.6,0-1-.4-1-1ZM11,31h5v-.6l-1.4-1.4h-3.6v2ZM29,36H10c-.6,0-1,.4-1,1s.4,1,1,1h19c.6,0,1-.4,1-1s-.4-1-1-1ZM38,22H10c-.6,0-1,.4-1,1s.4,1,1,1h28c.6,0,1-.4,1-1s-.4-1-1-1ZM38,27h-5c-.6,0-1,.4-1,1s.4,1,1,1h5c.6,0,1-.4,1-1s-.4-1-1-1ZM39,35.5c0,1.4-1.1,2.5-2.5,2.5h-1c-1.4,0-2.5-1.1-2.5-2.5s1.1-2.5,2.5-2.5h1c1.4,0,2.5,1.1,2.5,2.5ZM37,35.5c0-.3-.2-.5-.5-.5h-1c-.3,0-.5.2-.5.5s.2.5.5.5h1c.3,0,.5-.2.5-.5Z"/>
      </g>
    </g>
  </g>
</svg>