<?xml version="1.0" encoding="UTF-8"?>
<svg xmlns="http://www.w3.org/2000/svg" xmlns:xlink="http://www.w3.org/1999/xlink" version="1.1" viewBox="0 0 155.3 129.8">
  <defs>
    <style>
      .cls-1 {
        fill: none;
      }

      .cls-2 {
        fill: #f0f2f5;
      }

      .cls-3 {
        fill: #1d1d1b;
      }

      .cls-4 {
        clip-path: url(#clippath);
      }
    </style>
    <clipPath id="clippath">
      <rect class="cls-1" x="53.4" y="48.8" width="46.8" height="32.2"/>
    </clipPath>
  </defs>
  <!-- Generator: Adobe Illustrator 28.7.1, SVG Export Plug-In . SVG Version: 1.2.0 Build 142)  -->
  <g>
    <g id="Layer_1">
      <g class="cls-4">
        <path class="cls-2" d="M61.7,69c1.7,0,3.2-1.4,3.2-3.2s-1.4-3.2-3.2-3.2-3.2,1.4-3.2,3.2,1.4,3.2,3.2,3.2"/>
        <path class="cls-3" d="M96.9,76.4h-27.1c-.3,0-.5-.2-.5-.5s.2-.5.5-.5h27.1c1.3,0,2.3-1.1,2.3-2.5v-20.5c0-1.4-1-2.5-2.3-2.5h-31.7c-1.3,0-2.3,1.1-2.3,2.5v10.2c0,.3-.2.5-.5.5s-.5-.2-.5-.5v-10.2c0-2,1.5-3.5,3.3-3.5h31.7c1.8,0,3.3,1.6,3.3,3.5v20.5c0,2-1.5,3.5-3.3,3.5"/>
        <path class="cls-3" d="M79.5,80h3.1v-3.5h-3.1v3.5ZM83,81h-4c-.3,0-.5-.2-.5-.5v-4.6c0-.3.2-.5.5-.5h4c.3,0,.5.2.5.5v4.6c0,.3-.2.5-.5.5"/>
        <path class="cls-3" d="M86.9,81h-11.7c-.3,0-.5-.2-.5-.5s.2-.5.5-.5h11.7c.3,0,.5.2.5.5s-.2.5-.5.5"/>
        <path class="cls-3" d="M84.2,63.6c-.1,0-.2,0-.3-.1-.2-.2-.2-.5,0-.7l4.4-5c.2-.2.5-.2.7,0,.2.2.2.5,0,.7l-4.4,5c0,.1-.2.2-.4.2"/>
        <path class="cls-3" d="M82.1,64c0,0-.2,0-.2,0l-3.1-1.9c-.2-.1-.3-.5-.2-.7.1-.3.4-.3.7-.2l3.1,1.9c.2.1.3.5.2.7,0,.2-.3.3-.4.3"/>
        <path class="cls-3" d="M71.6,67.6c-.1,0-.3,0-.4-.2-.2-.2-.2-.5,0-.7l5.2-5.2c.2-.2.5-.2.7,0,.2.2.2.5,0,.7l-5.2,5.2c0,0-.2.1-.3.1"/>
        <path class="cls-3" d="M77.8,59.9c-.5,0-.8.4-.8.9s.4.9.8.9.8-.4.8-.9-.4-.9-.8-.9M77.8,62.7c-1,0-1.8-.9-1.8-1.9s.8-1.9,1.8-1.9,1.8.9,1.8,1.9-.8,1.9-1.8,1.9"/>
        <path class="cls-3" d="M83.3,63.3c-.5,0-.8.4-.8.9s.4.9.8.9.8-.4.8-.9-.4-.9-.8-.9M83.3,66.1c-1,0-1.8-.9-1.8-1.9s.8-1.9,1.8-1.9,1.8.9,1.8,1.9-.8,1.9-1.8,1.9"/>
        <path class="cls-3" d="M89.5,56c-.5,0-.8.4-.8.9s.4.9.8.9.8-.4.8-.9-.4-.9-.8-.9M89.5,58.8c-1,0-1.8-.9-1.8-1.9s.8-1.9,1.8-1.9,1.8.9,1.8,1.9-.8,1.9-1.8,1.9"/>
        <path class="cls-3" d="M92.1,70.7h-20.7c-.3,0-.5-.2-.5-.5v-15.3c0-.3.2-.5.5-.5s.5.2.5.5v14.7h20.2c.3,0,.5.2.5.5s-.2.5-.5.5"/>
        <path class="cls-3" d="M72.8,56.9c-.1,0-.3,0-.3-.2l-1-1.1-1,1.1c-.2.2-.5.2-.7,0-.2-.2-.2-.5,0-.7l1.4-1.5c.2-.2.5-.2.7,0l1.4,1.5c.2.2.2.5,0,.7,0,.1-.2.2-.3.2"/>
        <path class="cls-3" d="M90.7,72.2c-.1,0-.3,0-.3-.2-.2-.2-.2-.5,0-.7l1-1.1-1-1.1c-.2-.2-.2-.5,0-.7.2-.2.5-.2.7,0l1.4,1.5c0,0,.1.2.1.4s0,.3-.1.4l-1.4,1.5c0,.1-.2.2-.3.2"/>
        <path class="cls-3" d="M69.8,81c-.3,0-.5-.2-.5-.5v-5.3c0-1.8-1.4-3.2-3-3.2h-8.8c-1.7,0-3,1.4-3,3.2v5.3c0,.3-.2.5-.5.5s-.5-.2-.5-.5v-5.3c0-2.4,1.8-4.3,4-4.3h8.8c2.2,0,4,1.9,4,4.3v5.3c0,.3-.2.5-.5.5"/>
        <path class="cls-3" d="M61.9,63.2c-1.4,0-2.5,1.2-2.5,2.6s1.1,2.6,2.5,2.6,2.5-1.2,2.5-2.6-1.1-2.6-2.5-2.6M61.9,69.5c-1.9,0-3.5-1.7-3.5-3.7s1.6-3.7,3.5-3.7,3.5,1.7,3.5,3.7-1.6,3.7-3.5,3.7"/>
        <path class="cls-3" d="M57.2,81c-.3,0-.5-.2-.5-.5v-4.7c0-.3.2-.5.5-.5s.5.2.5.5v4.7c0,.3-.2.5-.5.5"/>
        <path class="cls-3" d="M66.5,81c-.3,0-.5-.2-.5-.5v-4.7c0-.3.2-.5.5-.5s.5.2.5.5v4.7c0,.3-.2.5-.5.5"/>
      </g>
    </g>
  </g>
</svg>