<?xml version="1.0" encoding="UTF-8"?>
<svg xmlns="http://www.w3.org/2000/svg" xmlns:xlink="http://www.w3.org/1999/xlink" version="1.1" viewBox="0 0 155.3 129.8">
  <defs>
    <style>
      .cls-1 {
        fill: none;
      }

      .cls-2 {
        fill: #f0f2f5;
      }

      .cls-3 {
        fill: #1d1d1b;
      }

      .cls-4 {
        clip-path: url(#clippath);
      }
    </style>
    <clipPath id="clippath">
      <rect class="cls-1" x="62.6" y="45.7" width="37.4" height="38.5"/>
    </clipPath>
  </defs>
  <!-- Generator: Adobe Illustrator 28.7.1, SVG Export Plug-In . SVG Version: 1.2.0 Build 142)  -->
  <g>
    <g id="Layer_1">
      <polygon class="cls-2" points="82.4 47 90 53.3 90 54.6 76.1 67.2 68.5 59.6 82.4 47"/>
      <g class="cls-4">
        <path class="cls-3" d="M82.9,61.8l13.1,13.9c.3.3.7.5,1.1.5.4,0,.8-.2,1.1-.5.3-.3.5-.7.5-1.1,0-.4-.2-.8-.5-1.1l-13.9-13.2-1.5,1.5ZM97.2,77.4h0c-.8,0-1.5-.3-2-.9l-13.5-14.4c-.2-.2-.2-.6,0-.9l2.3-2.3c.2-.2.6-.2.9,0l14.3,13.6c.6.5.9,1.2.9,2,0,.8-.3,1.5-.8,2-.5.5-1.2.8-2,.8"/>
        <path class="cls-3" d="M82.5,46.9l-13,13,6.7,6.7,13-13h0s0,0,0,0l-6.7-6.7ZM76.3,67.9c-.3,0-.6-.1-.9-.4l-6.7-6.7c-.5-.5-.5-1.3,0-1.7l13-13c.5-.5,1.2-.5,1.7,0l6.7,6.7c.2.2.4.5.4.9s-.1.6-.4.9l-13,13c-.2.2-.5.4-.9.4"/>
        <path class="cls-3" d="M66.9,78.8c0,0-.2,0-.2.1l-2.8,3.7c0,.1,0,.2,0,.3,0,0,0,.1.2.1h21.5c.1,0,.2,0,.2-.1,0,0,0-.2,0-.3l-2.8-3.7c0,0-.1-.1-.2-.1h-15.9ZM85.6,84.3h-21.5c-.6,0-1.1-.3-1.3-.8-.3-.5-.2-1.1.1-1.5l2.8-3.7c.3-.4.7-.6,1.2-.6h15.9c.5,0,.9.2,1.2.6l2.8,3.7c.3.5.4,1,.1,1.5-.3.5-.8.8-1.3.8"/>
      </g>
    </g>
  </g>
</svg>