<?xml version="1.0" encoding="UTF-8"?>
<svg xmlns="http://www.w3.org/2000/svg" xmlns:xlink="http://www.w3.org/1999/xlink" version="1.1" viewBox="0 0 155.3 129.8">
  <defs>
    <style>
      .cls-1 {
        fill: none;
      }

      .cls-2 {
        fill: #f0f2f5;
      }

      .cls-3 {
        fill: #1d1d1b;
      }

      .cls-4 {
        clip-path: url(#clippath);
      }
    </style>
    <clipPath id="clippath">
      <rect class="cls-1" x="62.8" y="47.2" width="44" height="36.9"/>
    </clipPath>
  </defs>
  <!-- Generator: Adobe Illustrator 28.7.1, SVG Export Plug-In . SVG Version: 1.2.0 Build 142)  -->
  <g>
    <g id="Layer_1">
      <polygon class="cls-2" points="86.3 65.7 90.1 70.1 106.5 53.6 101.5 49.9 86.3 65.7"/>
      <g class="cls-4">
        <path class="cls-3" d="M92,84.1h-28.4c-.4,0-.7-.3-.7-.7v-35.5c0-.4.3-.7.7-.7h28.4c.4,0,.7.3.7.7v11.4c0,.4-.3.7-.7.7s-.7-.3-.7-.7v-10.7h-27v34.1h27v-13.9c0-.4.3-.7.7-.7s.7.3.7.7v14.6c0,.4-.3.7-.7.7"/>
        <path class="cls-3" d="M70.1,62h4.3v-4.2h-4.3v4.2ZM75,63.4h-5.7c-.4,0-.7-.3-.7-.7v-5.6c0-.4.3-.7.7-.7h5.7c.4,0,.7.3.7.7v5.6c0,.4-.3.7-.7.7"/>
        <path class="cls-3" d="M70.1,73.6h4.3v-4.2h-4.3v4.2ZM75,75h-5.7c-.4,0-.7-.3-.7-.7v-5.6c0-.4.3-.7.7-.7h5.7c.4,0,.7.3.7.7v5.6c0,.4-.3.7-.7.7"/>
        <path class="cls-3" d="M84.4,63.4h-5.4c-.4,0-.7-.3-.7-.7s.3-.7.7-.7h5.4c.4,0,.7.3.7.7s-.3.7-.7.7"/>
        <path class="cls-3" d="M84.4,75h-5.4c-.4,0-.7-.3-.7-.7s.3-.7.7-.7h5.4c.4,0,.7.3.7.7s-.3.7-.7.7"/>
        <path class="cls-3" d="M86.7,65.9l-1.3,4.5,4.5-1.3,12-11.9-3.2-3.2-12,11.9ZM84.4,72c-.2,0-.4,0-.5-.2-.2-.2-.2-.4-.2-.7l1.7-5.8c0-.1,0-.2.2-.3l12.7-12.6c.3-.3.7-.3,1,0l4.2,4.1c.3.3.3.7,0,1l-12.7,12.6c0,0-.2.1-.3.2l-5.9,1.7c0,0-.1,0-.2,0"/>
        <path class="cls-3" d="M90.3,70.3c-.2,0-.4,0-.5-.2l-4.2-4.1c-.3-.3-.3-.7,0-1,.3-.3.7-.3,1,0l4.2,4.1c.3.3.3.7,0,1-.1.1-.3.2-.5.2"/>
        <path class="cls-3" d="M99.8,52.9l3.2,3.2,2.1-2.1-3.2-3.2-2.1,2.1ZM103,57.8c-.2,0-.4,0-.5-.2l-4.2-4.1c-.3-.3-.3-.7,0-1l3.1-3.1c.3-.3.7-.3,1,0l4.2,4.1c.1.1.2.3.2.5s0,.4-.2.5l-3.1,3.1c-.1.1-.3.2-.5.2"/>
      </g>
    </g>
  </g>
</svg>