<?xml version="1.0" encoding="UTF-8"?>
<svg xmlns="http://www.w3.org/2000/svg" xmlns:xlink="http://www.w3.org/1999/xlink" version="1.1" viewBox="0 0 155.3 129.8">
  <defs>
    <style>
      .cls-1 {
        fill: none;
      }

      .cls-2 {
        fill: #f0f2f5;
      }

      .cls-3 {
        fill: #1d1d1b;
      }

      .cls-4 {
        clip-path: url(#clippath);
      }
    </style>
    <clipPath id="clippath">
      <rect class="cls-1" x="55.6" y="43.1" width="38.3" height="41.7"/>
    </clipPath>
  </defs>
  <!-- Generator: Adobe Illustrator 28.7.1, SVG Export Plug-In . SVG Version: 1.2.0 Build 142)  -->
  <g>
    <g id="Layer_1">
      <g class="cls-4">
        <path class="cls-2" d="M74.8,72.3c4.5,0,8.2-3.7,8.2-8.2s-3.7-8.2-8.2-8.2-8.2,3.7-8.2,8.2,3.7,8.2,8.2,8.2"/>
        <path class="cls-3" d="M74.7,68.2c-.9,0-1.9-.3-2.7-1.4-.2-.3-.2-.7.1-.9.3-.2.7-.2.9.1,1.2,1.5,2.8.7,2.8.6,0,0,0,0,0,0,0,0,.6-.3.5-1,0-.8-.8-1-.9-1l-1.9-.6c-1.4-.4-1.7-1.4-1.7-2.2,0-.5.2-2.3,2.9-2.2,1.8,0,2.6,1.3,2.8,2,0,.3,0,.7-.4.8-.3,0-.7,0-.8-.4,0-.1-.4-1-1.6-1.1h0c-1.1,0-1.6.3-1.6,1,0,.4.1.8.8,1l1.9.6c0,0,1.6.5,1.7,2.1.1,1.3-.8,2-1.3,2.3-.4.2-1,.4-1.7.4"/>
        <path class="cls-3" d="M74.8,60.9c-.3,0-.6-.3-.6-.6v-1.5c0-.3.3-.6.6-.6s.6.3.6.6v1.5c0,.3-.3.6-.6.6"/>
        <path class="cls-3" d="M74.8,69.8c-.3,0-.6-.3-.6-.6v-1.5c0-.3.3-.6.6-.6s.6.3.6.6v1.5c0,.3-.3.6-.6.6"/>
        <path class="cls-3" d="M93.2,68.4h0,0ZM60.7,71.8h28c.3-2,1.9-3.7,3.9-4v-7.9c-2-.3-3.6-1.8-3.9-3.8h-28c-.3,2-1.9,3.5-3.8,3.8v7.9c2,.3,3.6,1.9,3.9,4M89.3,73.1h-29.2c-.2,0-.3,0-.4-.2-.1-.1-.2-.3-.2-.5,0-1.8-1.4-3.3-3.3-3.4-.3,0-.6-.3-.6-.6v-9c0-.3.3-.6.6-.6,1.8,0,3.2-1.5,3.3-3.3,0-.3.3-.6.6-.6h29.2c.3,0,.6.3.6.6,0,1.8,1.5,3.3,3.3,3.3.3,0,.6.3.6.6v9c0,.3-.3.6-.6.6-1.8,0-3.3,1.5-3.3,3.4s-.3.6-.6.6"/>
        <path class="cls-3" d="M56.8,56.1v2.6c1.3-.3,2.3-1.3,2.6-2.6h-2.6ZM56.2,60c-.2,0-.3,0-.4-.2-.1-.1-.2-.3-.2-.4v-3.9c0-.3.3-.6.6-.6h3.9c.2,0,.3,0,.4.2s.2.3.2.5c0,2.4-2,4.4-4.5,4.5h0"/>
        <path class="cls-3" d="M56.8,71.8h2.6c-.2-1.3-1.3-2.4-2.6-2.7v2.7ZM60.1,73.1h-3.9c-.3,0-.6-.3-.6-.6v-4c0-.2,0-.3.2-.4.1-.1.3-.2.5-.2,2.5,0,4.5,2.1,4.5,4.6s0,0,0,0c0,.3-.3.6-.6.6"/>
        <path class="cls-3" d="M90,56.1c.3,1.3,1.3,2.3,2.6,2.6v-2.6h-2.6ZM93.2,60h0c-2.5,0-4.5-2-4.6-4.5,0-.2,0-.3.2-.5.1-.1.3-.2.4-.2h4c.3,0,.6.3.6.6v3.9c0,.2,0,.3-.2.4-.1.1-.3.2-.4.2"/>
        <path class="cls-3" d="M89.9,71.8h2.7v-2.7c-1.3.3-2.4,1.4-2.7,2.7M93.2,73.1h-4c-.3,0-.6-.3-.6-.6,0-2.5,2.1-4.6,4.6-4.6.2,0,.3,0,.4.2.1.1.2.3.2.4v4c0,.3-.3.6-.6.6"/>
        <path class="cls-3" d="M74.7,56.1c-4.3,0-7.8,3.5-7.8,7.8s3.5,7.8,7.8,7.8,7.8-3.5,7.8-7.8-3.5-7.8-7.8-7.8M74.7,73.1c-5,0-9.1-4.1-9.1-9.1s4.1-9.1,9.1-9.1,9.1,4.1,9.1,9.1-4.1,9.1-9.1,9.1"/>
        <path class="cls-3" d="M82,52.8c-.3,0-.6-.3-.6-.6v-1.1c0-3.7-3-6.7-6.7-6.7s-6.7,3-6.7,6.7v1.1c0,.3-.3.6-.6.6s-.6-.3-.6-.6v-1.1c0-4.4,3.6-7.9,7.9-7.9s7.9,3.6,7.9,7.9v1.1c0,.3-.3.6-.6.6"/>
        <path class="cls-3" d="M82,52.8c-.2,0-.3,0-.4-.2l-2.4-2.4c-.2-.2-.2-.6,0-.9s.6-.2.9,0l1.9,1.9,1.9-1.9c.2-.2.6-.2.9,0s.2.6,0,.9l-2.4,2.4c-.1.1-.3.2-.4.2"/>
        <path class="cls-3" d="M74.7,84.8c-4.4,0-7.9-3.6-7.9-7.9v-1.1c0-.3.3-.6.6-.6s.6.3.6.6v1.1c0,3.7,3,6.7,6.7,6.7s6.7-3,6.7-6.7v-1.1c0-.3.3-.6.6-.6s.6.3.6.6v1.1c0,4.4-3.6,7.9-7.9,7.9"/>
        <path class="cls-3" d="M69.8,78.8c-.2,0-.3,0-.4-.2l-1.9-1.9-1.9,1.9c-.2.2-.6.2-.9,0s-.2-.6,0-.9l2.4-2.4c.1-.1.3-.2.4-.2s.3,0,.4.2l2.4,2.4c.2.2.2.6,0,.9-.1.1-.3.2-.4.2"/>
      </g>
    </g>
  </g>
</svg>