<?xml version="1.0" encoding="UTF-8"?>
<svg xmlns="http://www.w3.org/2000/svg" xmlns:xlink="http://www.w3.org/1999/xlink" version="1.1" viewBox="0 0 155.3 129.8">
  <defs>
    <style>
      .cls-1 {
        fill: none;
      }

      .cls-2 {
        fill: #f0f2f5;
      }

      .cls-3 {
        fill: #1d1d1b;
      }

      .cls-4 {
        clip-path: url(#clippath);
      }
    </style>
    <clipPath id="clippath">
      <rect class="cls-1" x="59.6" y="44.9" width="43.7" height="38.5"/>
    </clipPath>
  </defs>
  <!-- Generator: Adobe Illustrator 28.7.1, SVG Export Plug-In . SVG Version: 1.2.0 Build 142)  -->
  <g>
    <g id="Layer_1">
      <g class="cls-4">
        <path class="cls-2" d="M81.1,51.9c0-3.9,3.1-7,7-7h10.2c2.8,0,5,2.2,5,5v8.9l-.7.3c-.4.2-3.4.3-6.7.3h-8.8c-3.3,0-6-2.7-6-6v-1.6Z"/>
        <path class="cls-3" d="M61.9,49.6c-.5,0-.9.4-.9.9v23.3c0,.5.4.9.9.9h22.6c.2,0,.4,0,.5.2l6.7,6.8c.4.4.8.2,1,.2.1,0,.5-.3.5-.8v-5.7c0-.4.3-.7.7-.7h4.1c.5,0,.9-.4.9-.9v-23.3c0-.5-.4-.9-.9-.9h-36.1ZM92.2,83.4c-.6,0-1.1-.2-1.6-.7l-6.5-6.6h-22.3c-1.2,0-2.3-1-2.3-2.3v-23.3c0-1.3,1-2.3,2.3-2.3h36.1c1.2,0,2.3,1,2.3,2.3v23.3c0,1.3-1,2.3-2.3,2.3h-3.4v5c0,.9-.5,1.8-1.4,2.1-.3.1-.6.2-.9.2"/>
        <path class="cls-3" d="M84,57.4h-15.6c-.4,0-.7-.3-.7-.7s.3-.7.7-.7h15.6c.4,0,.7.3.7.7s-.3.7-.7.7"/>
        <path class="cls-3" d="M91.4,63h-23c-.4,0-.7-.3-.7-.7s.3-.7.7-.7h23c.4,0,.7.3.7.7s-.3.7-.7.7"/>
        <path class="cls-3" d="M91.4,68.6h-23c-.4,0-.7-.3-.7-.7s.3-.7.7-.7h23c.4,0,.7.3.7.7s-.3.7-.7.7"/>
      </g>
    </g>
  </g>
</svg>