<?xml version="1.0" encoding="UTF-8"?>
<svg xmlns="http://www.w3.org/2000/svg" xmlns:xlink="http://www.w3.org/1999/xlink" version="1.1" viewBox="0 0 155.3 129.8">
  <defs>
    <style>
      .cls-1 {
        fill: none;
      }

      .cls-2 {
        fill: #f0f2f5;
      }

      .cls-3 {
        fill: #1d1d1b;
      }

      .cls-4 {
        clip-path: url(#clippath);
      }
    </style>
    <clipPath id="clippath">
      <rect class="cls-1" x="60.2" y="46" width="44" height="32.5"/>
    </clipPath>
  </defs>
  <!-- Generator: Adobe Illustrator 28.7.1, SVG Export Plug-In . SVG Version: 1.2.0 Build 142)  -->
  <g>
    <g id="Layer_1">
      <g class="cls-4">
        <path class="cls-2" d="M91.4,66.7c5.6,0,10.1-4.5,10.1-10.1s-4.5-10.1-10.1-10.1-10.1,4.5-10.1,10.1,4.5,10.1,10.1,10.1"/>
        <path class="cls-3" d="M93.6,61c-1.1,0-2.3-.4-3.2-1.6-.2-.2-.1-.6.1-.8.2-.2.6-.1.8.1,1.5,1.9,3.7.9,3.8.8,0,0,0,0,0,0,0,0,.9-.4.8-1.4-.1-1.1-1.2-1.4-1.2-1.5,0,0-1.2-.4-2.4-.7-1.3-.4-2-1.2-2-2.4,0-.7.3-1.3.8-1.7.6-.5,1.5-.8,2.6-.7,2.1,0,3.1,1.5,3.3,2.2,0,.3,0,.6-.4.7-.3,0-.6,0-.7-.4,0,0-.5-1.4-2.2-1.4-.9,0-1.5.2-1.9.5-.3.2-.4.5-.4.9,0,.5.1,1.1,1.2,1.4,1.2.3,2.4.7,2.4.7,0,0,1.8.5,2,2.4.1,1.5-.9,2.3-1.4,2.6-.5.2-1.2.5-2,.5"/>
        <path class="cls-3" d="M93.7,52.1c-.3,0-.6-.2-.6-.5v-1.9c0-.3.3-.6.6-.6s.6.2.6.6v1.9c0,.3-.3.5-.6.5"/>
        <path class="cls-3" d="M93.7,63c-.3,0-.6-.2-.6-.5v-1.9c0-.3.3-.5.6-.5s.6.2.6.5v1.9c0,.3-.3.5-.6.5"/>
        <path class="cls-3" d="M61.3,57.6v19l10.6-9.5-10.6-9.5ZM82.5,67.1l10.6,9.5v-10c-2.5-.1-5-1.2-6.8-2.9l-3.8,3.4ZM62.1,77.4h30.2l-10.7-9.6-4,3.6c-.2.2-.5.2-.8,0l-4-3.6-10.7,9.6ZM93.6,78.5h-32.9c-.3,0-.6-.2-.6-.5v-21.6c0-.2.1-.4.3-.5.2,0,.4,0,.6,0l16.1,14.4,8.7-7.8c.2-.2.6-.2.8,0,1.8,1.9,4.3,3,6.9,3s.6.2.6.5v11.9c0,.3-.3.5-.6.5"/>
        <path class="cls-3" d="M62.2,56.9l15,13.4,8.3-7.5c-1.4-1.7-2.2-3.8-2.4-6h-21ZM77.2,71.6c-.1,0-.3,0-.4-.1l-16.5-14.7c-.2-.2-.2-.4-.1-.6,0-.2.3-.4.5-.4h23c.3,0,.6.2.6.5,0,2.3.9,4.5,2.5,6.2.1.1.2.2.1.4,0,.1,0,.3-.2.4l-9.1,8.2c-.1,0-.2.1-.4.1"/>
        <path class="cls-3" d="M93.6,47.1c-5.2,0-9.4,4.1-9.4,9.2s.9,4.5,2.5,6.2c1.8,1.9,4.3,3,6.9,3,5.2,0,9.4-4.1,9.4-9.2s-4.2-9.2-9.4-9.2M93.6,66.6c-2.9,0-5.8-1.2-7.7-3.4-1.8-1.9-2.8-4.4-2.8-6.9,0-5.7,4.7-10.3,10.5-10.3s10.5,4.6,10.5,10.3-4.7,10.3-10.5,10.3"/>
      </g>
    </g>
  </g>
</svg>