<?xml version="1.0" encoding="UTF-8"?>
<svg xmlns="http://www.w3.org/2000/svg" xmlns:xlink="http://www.w3.org/1999/xlink" version="1.1" viewBox="0 0 155.3 129.8">
  <defs>
    <style>
      .cls-1, .cls-2 {
        fill: none;
      }

      .cls-3 {
        fill: #adbdff;
      }

      .cls-2 {
        stroke: #fff;
        stroke-linecap: round;
        stroke-linejoin: round;
        stroke-width: 3px;
      }

      .cls-4 {
        clip-path: url(#clippath);
      }
    </style>
    <clipPath id="clippath">
      <rect class="cls-1" x="21" y="13.9" width="117.2" height="102"/>
    </clipPath>
  </defs>
  <!-- Generator: Adobe Illustrator 28.7.1, SVG Export Plug-In . SVG Version: 1.2.0 Build 142)  -->
  <g>
    <g id="Layer_1">
      <g class="cls-4">
        <path class="cls-3" d="M79.6,64.9c9.7,0,17.5-7.8,17.5-17.5s-7.8-17.5-17.5-17.5-17.5,7.8-17.5,17.5,7.8,17.5,17.5,17.5"/>
        <path class="cls-2" d="M79.6,21.6v-6.2M102.5,70.7l-4.4-4.4M61.1,29.3l-4.4-4.4M56.7,70.7l4.4-4.4M98.2,29.3l4.4-4.4M47.2,47.8h6.2M105.8,47.8h6.2M87.3,69.7h-15.4M98,48.8c-.1,5.9-3,11.2-7.5,14.4-2,1.5-3.3,3.8-3.3,6.3v6.4c0,3-2.4,5.5-5.5,5.5h-4.4c-3,0-5.5-2.4-5.5-5.5v-6.6c0-2.3-1.1-4.6-3-5.9-4.7-3.3-7.7-8.8-7.7-15,0-10.4,8.6-18.8,19.1-18.4,9.9.4,17.9,8.9,17.7,18.8ZM79.6,114.4H22.5V45h9.4M56.1,39.3h-24.2v66h41.4c3.5,0,6.3,2.3,6.3,5.1v-23.6M127.4,45h9.4v69.5h-57.1M79.6,87.4v23.1c0-2.8,2.8-5.1,6.3-5.1h41.4V39.3h-24.8"/>
      </g>
    </g>
  </g>
</svg>