<?xml version="1.0" encoding="UTF-8"?>
<svg xmlns="http://www.w3.org/2000/svg" xmlns:xlink="http://www.w3.org/1999/xlink" version="1.1" viewBox="0 0 155.3 129.8">
  <defs>
    <style>
      .cls-1 {
        fill: none;
      }

      .cls-2 {
        fill: #adbdff;
      }

      .cls-3 {
        fill: #fff;
      }

      .cls-4 {
        clip-path: url(#clippath);
      }
    </style>
    <clipPath id="clippath">
      <rect class="cls-1" x="26.3" y="14.3" width="108" height="101.1"/>
    </clipPath>
  </defs>
  <!-- Generator: Adobe Illustrator 28.7.1, SVG Export Plug-In . SVG Version: 1.2.0 Build 142)  -->
  <g>
    <g id="Layer_1">
      <rect class="cls-2" x="77.2" y="35" width="34" height="29.8"/>
      <g class="cls-4">
        <path class="cls-3" d="M103.4,103.2h-51.5v4.2h0v.2h0v.2h0v.2h0v.2h0c0,.1,0,.2,0,.2v.2c.2,1,.7,1.8,1.4,2.5.2.2.4.4.6.6h.1c0,0,0,0,0,0h.1c0,.1,0,.1,0,.1h0c0,0,0,.1,0,.1h.1c0,0,0,0,0,0h.1c0,0,0,0,0,0h0c0,0,0,0,0,0h0c0,0,0,0,0,0h.1c0,0,0,0,0,0h.1c0,0,0,0,0,0h.1c0,0,0,0,0,0h.1c0,0,0,0,0,0h.2c0,0,0,0,0,0h.3c0,0,0,0,0,0h42.6c0,0,.1,0,.1,0h.3c0,0,0,0,0,0,0,0,.2,0,.2,0,.8-.2,1.5-.7,2.1-1.3.6-.6,1-1.3,1.3-2.1h0c0,0,0-.3,0-.3h0v-.2h0c0,0,0-.1,0-.1h0v-.2h0v-.2h0c0,0,0-.2,0-.2h0v-.2h0v-4.3ZM71.8,109.3c-.8,0-1.5-.7-1.5-1.5s.7-1.5,1.5-1.5h11c.9,0,1.5.7,1.5,1.5s-.6,1.5-1.5,1.5h-11ZM71.4,17.3l1.2,1.9h10.5l1.2-1.9h-12.9ZM51.9,86.3v13.9h51.5v-35.3h3v42.5h0v.2h0v.2h0v.2h0v.2h0c0,.1,0,.2,0,.2h0v.2h0c0,.1,0,.2,0,.2h0v.2h0v.2h0c0,.1,0,.2,0,.2v.2c0,0-.1.3-.1.3h0c-.4,1.3-1,2.3-1.9,3.1-.9.9-1.9,1.5-3.1,1.9h-.3c0,.1-.2.2-.2.2h-.3c0,0,0,0,0,0h-.2c0,0-.1,0-.1,0h-.2c0,0-.1,0-.1,0h-.5c0,0-.1,0-.1,0h-42.6c0,0-.1,0-.1,0h-.5c0,0-.1,0-.1,0h-.2c0,0-.1,0-.1,0h-.2c0,0-.1,0-.1,0h-.2c0,0-.1,0-.1,0h0c0,0-.1,0-.1,0h-.1c0,0,0,0,0,0h-.1c0,0,0-.1,0-.1h-.2c0,0,0,0,0,0h-.1c0,0,0-.1,0-.1h-.2c0,0-.1-.1-.1-.1h0c0,0-.1,0-.1,0h0c0,0-.1-.1-.1-.1h-.2c0-.1,0-.1,0-.1h-.1c0,0,0-.1,0-.1h0c0,0-.1-.1-.1-.1h-.2c0-.1,0-.2,0-.2h0c0,0-.1-.1-.1-.1h0c0,0,0-.1,0-.1h-.1c0,0,0-.1,0-.1h0c0,0-.1-.1-.1-.1h0c0,0,0-.1,0-.1h0c0,0,0-.2,0-.2h-.1c0,0,0-.1,0-.1h0c-1-1.1-1.8-2.5-2.1-3.9h0v-.4c0,0,0-.1,0-.1h0v-.2h0v-.2h0v-.2h0v-.2h0v-.2h0v-21.4h3ZM56.8,14.3h41.7c2.2,0,4.2.9,5.6,2.3,1.4,1.4,2.3,3.4,2.3,5.6v2.9h-3v-2.9c0-1.3-.6-2.6-1.5-3.5-.9-.9-2.1-1.4-3.4-1.4h-10.6l-2.7,4.2c-.3.5-.8.7-1.3.7h-12.1c-.5,0-1-.2-1.3-.7l-2.7-4.2h-10.9c-1.3,0-2.6.6-3.4,1.4h0c-.9.9-1.4,2.1-1.4,3.5v24.2h-3v-24.2c0-2.2.9-4.2,2.3-5.6,1.4-1.4,3.4-2.3,5.6-2.3"/>
        <path class="cls-3" d="M128.8,26.6h-37.2c-.7,0-1.3.3-1.8.7-.5.5-.7,1.1-.7,1.8v31.8c0,.7.3,1.3.7,1.8.5.5,1.1.7,1.8.7h2.9c.6,0,1.1.2,1.5.6.4.4.7,1,.7,1.6v2.6l4.7-4.2c.2-.2.4-.3.7-.5.2,0,.5-.1.8-.1h25.9c.6,0,1.3-.3,1.7-.7s.7-1.1.7-1.8v-31.8c0-.7-.3-1.3-.7-1.8-.5-.5-1.1-.7-1.7-.7M91.6,23.6h37.2c1.5,0,2.9.6,3.9,1.7s1.6,2.3,1.6,3.9v31.8c0,1.5-.6,2.9-1.6,3.9-1,1-2.4,1.7-3.9,1.7h-25.6l-5.8,5.2c-.3.3-.7.5-1.1.6-.4,0-.9,0-1.3-.2-.4-.2-.7-.5-1-.8-.2-.4-.3-.8-.3-1.3v-3.5h-2.1c-1.5,0-2.9-.6-3.9-1.7-1-1-1.6-2.3-1.6-3.9v-31.8c0-1.5.6-2.9,1.6-3.9,1-1,2.3-1.7,3.9-1.7"/>
        <path class="cls-3" d="M31.8,44.9h37.2c1.5,0,2.9.6,3.9,1.6,1,1,1.6,2.4,1.6,3.9v31.8c0,1.5-.6,2.9-1.6,3.9-1,1-2.4,1.6-3.9,1.6h-2.1v3.6c0,.5-.1.9-.4,1.2-.2.4-.5.7-1,.9-.3.2-.8.2-1.2.2-.5-.1-.9-.3-1.1-.6l-5.8-5.3h-25.6c-1.5,0-2.9-.6-3.9-1.6-1-1-1.6-2.3-1.6-3.9v-31.8c0-1.5.6-2.9,1.6-3.9,1-1,2.4-1.6,3.9-1.6M69,48H31.8c-.7,0-1.3.3-1.8.7s-.7,1-.7,1.7v31.8c0,.7.2,1.3.7,1.8s1.1.7,1.8.7h25.9c.3,0,.5,0,.8.1.2.1.5.2.7.5l4.7,4.2v-2.6c0-.6.2-1.2.6-1.6.4-.4,1-.6,1.6-.6h2.9c.7,0,1.3-.3,1.7-.7s.7-1.1.7-1.8v-31.8c0-.7-.3-1.3-.7-1.7s-1-.7-1.7-.7"/>
        <path class="cls-3" d="M97.6,40.8c-.8,0-1.5-.7-1.5-1.5s.7-1.5,1.5-1.5h24.3c.8,0,1.5.7,1.5,1.5s-.7,1.5-1.5,1.5h-24.3Z"/>
        <path class="cls-3" d="M97.6,51.3c-.8,0-1.5-.7-1.5-1.5s.7-1.5,1.5-1.5h16.9c.8,0,1.5.7,1.5,1.5s-.7,1.5-1.5,1.5h-16.9Z"/>
        <path class="cls-3" d="M53.2,56.4h-5.6v7.6h-7.6v5.6h7.6v7.6h5.6v-7.6h7.6v-5.6h-7.6v-7.6ZM46.8,53.4h7.2c.6,0,1.1.3,1.6.7.4.4.6,1,.6,1.5v5.4h5.4c.6,0,1.1.2,1.5.6.4.4.7,1,.7,1.6v7.2c0,.6-.3,1.2-.7,1.6-.4.4-1,.6-1.5.6h-5.4v5.4c0,.6-.2,1.1-.6,1.5-.5.4-1,.7-1.6.7h-7.2c-.6,0-1.2-.3-1.6-.7-.4-.4-.6-1-.6-1.5v-5.4h-5.4c-.6,0-1.1-.2-1.5-.6-.5-.4-.7-1-.7-1.6v-7.2c0-.6.2-1.2.7-1.6.4-.4.9-.6,1.5-.6h5.4v-5.4c0-.6.2-1.1.6-1.5.4-.4,1-.7,1.6-.7"/>
      </g>
    </g>
  </g>
</svg>